<svg id="_4781852_burger_line_list_menu_nav_icon" data-name="4781852_burger_line_list_menu_nav_icon" xmlns="http://www.w3.org/2000/svg" width="32" height="32" viewBox="0 0 32 32">
  <g id="Layer_2" data-name="Layer 2">
    <path id="Path_1" data-name="Path 1" d="M28,11H4c-.552,0-1-.672-1-1.5S3.448,8,4,8H28c.552,0,1,.672,1,1.5S28.552,11,28,11Z"/>
    <path id="Path_2" data-name="Path 2" d="M28,18H4c-.552,0-1-.672-1-1.5S3.448,15,4,15H28c.552,0,1,.672,1,1.5S28.552,18,28,18Z"/>
    <path id="Path_3" data-name="Path 3" d="M28,25H4c-.552,0-1-.672-1-1.5S3.448,22,4,22H28c.552,0,1,.672,1,1.5S28.552,25,28,25Z"/>
  </g>
  <g id="frame">
    <rect id="Rectangle_1" data-name="Rectangle 1" width="32" height="32" fill="none"/>
  </g>
</svg>
