<?xml version="1.0" ?><svg height="48px" version="1.1" viewBox="0 0 48 48" width="48px" xmlns="http://www.w3.org/2000/svg" xmlns:xlink="http://www.w3.org/1999/xlink"><title/><desc/><g fill="none" fill-rule="evenodd" id="Page-1" stroke="none" stroke-width="1"><g id="Artboard-Copy" transform="translate(-167.000000, -489.000000)"><path d="M184.454197,515.603507 C182.909754,513.465329 181.9996,510.838936 181.9996,508.0004 C181.9996,500.820855 187.820319,495.0004 195.000191,495.0004 C202.180063,495.0004 207.9996,500.820855 207.9996,508.0004 C207.9996,515.178764 202.180063,521.0004 195.000191,521.0004 C192.469289,521.0004 190.10727,520.277027 188.109552,519.025845 L179.9746,528.1274 C178.8486,529.2554 177.0376,529.2914 175.8706,528.2284 L175.8216,528.1794 L175.7726,528.1274 C174.7096,526.9634 174.7436,525.1524 175.8706,524.0254 L184.454197,515.603507 Z M185.0006,508.0004 C185.0006,502.4779 189.4781,498.0004 195.0006,498.0004 C200.5231,498.0004 205.0006,502.4779 205.0006,508.0004 C205.0006,513.5229 200.5231,518.0004 195.0006,518.0004 C189.4781,518.0004 185.0006,513.5229 185.0006,508.0004 L185.0006,508.0004 Z" fill="#fff" id="search"/><g id="slices" transform="translate(47.000000, 9.000000)"/></g></g></svg>