<svg xmlns="http://www.w3.org/2000/svg" viewBox="0 0 503.11 219.07"><defs><style>.cls-1{fill:#003871;}.cls-2{fill:#eb690b;}</style></defs><title>Logo ISES_blue on transparent</title><g id="neu"><path class="cls-1" d="M221.4,344.93l.62-.17-.75.07a91.07,91.07,0,0,0-57-20.2h-.38l-.81,0a89.64,89.64,0,0,0-56.64,20.43c-8-.74-11.74-1.39-11.74-1.39a71.83,71.83,0,0,0,10.13,2.75,91.74,91.74,0,0,0-30.87,56.13c-9.62-2.77-14.84-4.91-14.84-4.91s4.73,3.26,14.55,7.21a78.82,78.82,0,0,0-.47,8.48c0,49.76,33.39,80,68.38,89.9-33.21-16.25-60.68-43-60.68-89.31a55.4,55.4,0,0,1,.38-6.26c3.93,1.34,8.38,2.68,13.4,4a115.34,115.34,0,0,0,1.88,18.68c-8.24-1.64-12.7-3-12.7-3A77.51,77.51,0,0,0,97,432.5c5,23.85,17.48,39.53,31.67,51.18-11.57-14.1-21-27.1-25-49.26A174,174,0,0,0,121.74,438c2.36,6.79,4.47,11.24,4.47,11.24s-1-4.46-2.06-10.89a239.81,239.81,0,0,0,37.16,2,202.32,202.32,0,0,0,54.8-8.89,370.46,370.46,0,0,1-50.91,4.37,349.43,349.43,0,0,1-41.74-1.62c-.87-5.39-1.73-11.63-2.26-17.64,4.36.56,8.95,1,13.79,1.39q2.94.22,5.81.34c1,7,2.06,12.26,2.06,12.26s-.19-5.35-.29-12.2a201.4,201.4,0,0,0,47.81-4.06,366.72,366.72,0,0,1-47.85-.24c0-5.6,0-11.62.33-16.35.05-.81.11-1.59.16-2.39,6.07.52,12.88.87,20.37.92.51,6.94.84,11.6.84,11.6s.3-4.66.77-11.59c8,0,16.84-.35,26.35-1.23,6.23-.57,12-1.43,17.16-2.44.42,1.8.8,3.51,1.14,5.12,0-1.77-.06-3.54-.15-5.31A160.09,160.09,0,0,0,226.82,388,125.13,125.13,0,0,1,234,413.93a103.54,103.54,0,0,0-3.68-27.11,90.91,90.91,0,0,0,10.19-4.11s-4,.88-10.76,2.08a99.88,99.88,0,0,0-20-37.29l.95-.18C244,365.9,256,404.95,251.31,440.44,261.6,400.46,247.06,365.68,221.4,344.93ZM115.8,391.21c-.3,4.42-.47,9.06-.47,14,0,2,.1,4.08.28,6.12-4.95-.7-9.62-1.47-14-2.28,0,0,0-.09,0-.14a93,93,0,0,1,8.73-39.25c2.44.48,5.13,1,8.12,1.4a145,145,0,0,0-2.62,19.14c-4.89-.54-7.51-1-7.51-1S110.92,390.07,115.8,391.21Zm28.67-49.26q-.8,2.34-1.5,5.07l-4.55-.12A36.53,36.53,0,0,1,144.47,341.94Zm14.45-2.25c.2,2,.43,4.57.69,7.56l-6.53-.06A21.66,21.66,0,0,1,158.92,339.7Zm10.51-.09a22.83,22.83,0,0,1,6.91,7.54c-2.53.05-5.1.09-7.68.1C168.95,344.09,169.21,341.46,169.43,339.61Zm-45.15,9.89,1.39.15a83,83,0,0,0-6.44,18q-4.13-.29-7.59-.6A71.08,71.08,0,0,1,124.29,349.5Zm.64,22.41c4.31.52,9.09,1,14.36,1.34-.35,5.54-.56,11.68-.61,18.48-6.81-.23-12.6-.61-17.23-1A109,109,0,0,1,124.93,371.91Zm1.18-3.84a58.73,58.73,0,0,1,9.12-17.55q3.27.25,6.83.45a149,149,0,0,0-2.43,17.69Q132.26,368.43,126.11,368.07Zm25-16.69q4.23.14,8.82.21c.43,5.25.91,11.29,1.39,17.44-5.35,0-10.39-.08-15.07-.18A95.62,95.62,0,0,1,151.15,351.38Zm17.13.25c3.53,0,7-.14,10.33-.32a81.47,81.47,0,0,1,5.77,17.29c-5.53.22-11.42.38-17.46.43C167.38,362.85,167.85,356.8,168.28,351.63Zm15-.63c2.42-.18,4.77-.4,7-.65a77,77,0,0,1,10.13,17.37c-4.33.29-9.22.57-14.47.8A127.64,127.64,0,0,0,183.33,351Zm-1-4c-.59-2.08-1.22-4-1.91-5.84a38.64,38.64,0,0,1,6.87,5.68Zm10.11-5.61a63.18,63.18,0,0,1,6.64,4.92l-3.19.16Q194.22,343.81,192.41,341.4ZM107,357.12a78.93,78.93,0,0,0-4.51,9l-3.43-.43A78,78,0,0,1,107,357.12Zm-8.76,9.58c1.05.32,2.25.66,3.6,1-4.56,11.37-7.11,24.77-7.22,39.94-4.77-1-9.09-2-13-3A85.73,85.73,0,0,1,98.24,366.7Zm22.14,67.22c-6.53-.72-12.29-1.56-17.18-2.39a143.06,143.06,0,0,1-1.51-18.25c4.46,1,9.28,1.85,14.47,2.63A116.61,116.61,0,0,0,120.38,433.93Zm19.81-20-.89-.06c-6.48-.49-12.62-1.12-18.42-1.86-.11-2-.18-3.9-.18-5.72,0-4.85.21-9.49.61-13.91,4.63.9,10.45,1.84,17.37,2.57v0A154.21,154.21,0,0,0,140.19,413.94Zm3.11-22.08c.55-6.8,1.28-12.87,2.15-18.24q7.54.38,16.3.44c.48,6.25.93,12.4,1.32,17.7C155.85,392,149.24,392,143.29,391.86ZM190,390.13c-8.81.81-17,1.3-24.65,1.56.36-5.3.79-11.43,1.24-17.63,6.59-.08,12.89-.52,18.69-1.15a100.65,100.65,0,0,1,1.47,12.4q0-6.54-.39-12.52c5.65-.65,10.81-1.48,15.29-2.33a147.36,147.36,0,0,1,5.79,17.74C202,388.89,196.19,389.56,190,390.13ZM209.18,388a106.53,106.53,0,0,0-3.41-18.34c4.65-1,8.32-1.92,10.7-2.57a126.76,126.76,0,0,1,9.35,18.42C221.15,386.26,215.52,387.13,209.18,388Zm6.93-21.48c-2.52.24-6.3.57-11,.92a92,92,0,0,0-7.5-17.93q2.21-.3,4.26-.62A90.2,90.2,0,0,1,216.11,366.49Z" transform="translate(-55.03 -305.86)"/><path class="cls-1" d="M122,455.84s23.17,11.79,67,5.38a144.58,144.58,0,0,0,45-14.67,261,261,0,0,1-42.31,9.67C149.75,462.34,122,455.84,122,455.84Z" transform="translate(-55.03 -305.86)"/><path class="cls-1" d="M164.37,317.58a89.69,89.69,0,0,0-12.5.78l12.5-12.5,12.5,12.5A89.68,89.68,0,0,0,164.37,317.58Z" transform="translate(-55.03 -305.86)"/><path class="cls-1" d="M164.36,513.2a89.68,89.68,0,0,0,12.5-.78l-12.5,12.5-12.5-12.5A89.67,89.67,0,0,0,164.36,513.2Z" transform="translate(-55.03 -305.86)"/><path class="cls-1" d="M95.34,346.17a89.45,89.45,0,0,0-8.29,9.39V337.88h17.68A89.39,89.39,0,0,0,95.34,346.17Z" transform="translate(-55.03 -305.86)"/><path class="cls-1" d="M66.75,415.2a89.68,89.68,0,0,0,.78,12.5L55,415.2l12.5-12.5A89.69,89.69,0,0,0,66.75,415.2Z" transform="translate(-55.03 -305.86)"/><path class="cls-1" d="M95.34,484.22a89.58,89.58,0,0,0,9.39,8.29H87.05V474.84A89.34,89.34,0,0,0,95.34,484.22Z" transform="translate(-55.03 -305.86)"/><path class="cls-2" d="M233.39,346.17a89.22,89.22,0,0,0-9.39-8.29h17.68v17.68A89.6,89.6,0,0,0,233.39,346.17Z" transform="translate(-55.03 -305.86)"/><path class="cls-1" d="M275.13,464V441.55h2.39V464Z" transform="translate(-55.03 -305.86)"/><path class="cls-1" d="M293.52,464v-9.54c0-2.74-1.48-4.13-3.81-4.13s-3.84,1.42-3.84,4.13V464H283.6v-15.5h2.27v1.7a5.58,5.58,0,0,1,4.35-1.89,5.43,5.43,0,0,1,4,1.45,5.73,5.73,0,0,1,1.61,4.31V464Z" transform="translate(-55.03 -305.86)"/><path class="cls-1" d="M305.65,464c-2.64,0-4-1.86-4-4.16V450.3h-2v-1.73h2v-4.85h2.27v4.85h3.31v1.73h-3.31v9.45c0,1.42.66,2.27,2.11,2.27h1.2v2Z" transform="translate(-55.03 -305.86)"/><path class="cls-1" d="M312.92,456.82c0,3.4,1.6,5.35,4.56,5.35a5.09,5.09,0,0,0,4.06-1.76l1.54,1.35a7.1,7.1,0,0,1-5.67,2.39c-4.09,0-6.76-2.46-6.76-7.94,0-5,2.42-7.94,6.35-7.94s6.36,2.9,6.36,7.5v1Zm7.71-4.28a4,4,0,0,0-7.24,0,6.56,6.56,0,0,0-.47,2.58h8.18A6.56,6.56,0,0,0,320.63,452.54Z" transform="translate(-55.03 -305.86)"/><path class="cls-1" d="M336.85,451.44a3.24,3.24,0,0,0-2.68-1.13c-2.27,0-3.71,1.8-3.71,4.16V464h-2.27v-15.5h2.27v1.89a5.2,5.2,0,0,1,4.35-2.08,4.77,4.77,0,0,1,3.72,1.45Z" transform="translate(-55.03 -305.86)"/><path class="cls-1" d="M351.37,464v-9.54c0-2.74-1.48-4.13-3.81-4.13s-3.84,1.42-3.84,4.13V464h-2.27v-15.5h2.27v1.7a5.58,5.58,0,0,1,4.35-1.89,5.43,5.43,0,0,1,4,1.45,5.73,5.73,0,0,1,1.61,4.31V464Z" transform="translate(-55.03 -305.86)"/><path class="cls-1" d="M367.94,464v-1.48a5.44,5.44,0,0,1-4.47,1.67c-2.14,0-3.4-.41-4.38-1.42a4.46,4.46,0,0,1-1.17-3.15c0-2.71,1.89-4.47,5.35-4.47h4.66v-1.48c0-2.27-1.13-3.4-4-3.4-2,0-3,.47-3.9,1.76l-1.54-1.42c1.38-1.8,3-2.3,5.48-2.3,4.16,0,6.21,1.8,6.21,5.17V464Zm0-7.15H363.6c-2.33,0-3.46.95-3.46,2.74s1.1,2.65,3.56,2.65a4.53,4.53,0,0,0,3.46-1,3.58,3.58,0,0,0,.79-2.68Z" transform="translate(-55.03 -305.86)"/><path class="cls-1" d="M380.07,464c-2.64,0-4-1.86-4-4.16V450.3h-2v-1.73h2v-4.85h2.27v4.85h3.31v1.73h-3.31v9.45c0,1.42.66,2.27,2.11,2.27h1.2v2Z" transform="translate(-55.03 -305.86)"/><path class="cls-1" d="M386.05,444.07v-2.55h2.55v2.55Zm.13,19.9v-15.5h2.27V464Z" transform="translate(-55.03 -305.86)"/><path class="cls-1" d="M404.1,462.4a6.47,6.47,0,0,1-8.88,0c-1.57-1.61-1.89-3.78-1.89-6.17s.32-4.57,1.89-6.17a6.47,6.47,0,0,1,8.88,0c1.57,1.61,1.89,3.78,1.89,6.17S405.68,460.79,404.1,462.4Zm-1.61-11a4,4,0,0,0-2.84-1.13,3.9,3.9,0,0,0-2.8,1.13c-1.13,1.13-1.26,3.05-1.26,4.79s.13,3.65,1.26,4.79a3.9,3.9,0,0,0,2.8,1.13A4,4,0,0,0,402.5,461c1.13-1.13,1.23-3.06,1.23-4.79S403.63,452.57,402.5,451.44Z" transform="translate(-55.03 -305.86)"/><path class="cls-1" d="M420.77,464v-9.54c0-2.74-1.48-4.13-3.81-4.13s-3.84,1.42-3.84,4.13V464h-2.27v-15.5h2.27v1.7a5.58,5.58,0,0,1,4.35-1.89,5.43,5.43,0,0,1,4,1.45A5.73,5.73,0,0,1,423,454V464Z" transform="translate(-55.03 -305.86)"/><path class="cls-1" d="M437.33,464v-1.48a5.44,5.44,0,0,1-4.47,1.67c-2.14,0-3.4-.41-4.38-1.42a4.46,4.46,0,0,1-1.16-3.15c0-2.71,1.89-4.47,5.35-4.47h4.66v-1.48c0-2.27-1.13-3.4-4-3.4-2,0-3,.47-3.91,1.76l-1.54-1.42c1.39-1.8,3-2.3,5.48-2.3,4.16,0,6.2,1.8,6.2,5.17V464Zm0-7.15H433c-2.33,0-3.46.95-3.46,2.74s1.1,2.65,3.56,2.65a4.53,4.53,0,0,0,3.46-1,3.58,3.58,0,0,0,.79-2.68Z" transform="translate(-55.03 -305.86)"/><path class="cls-1" d="M449,464c-2.71,0-3.94-1.76-3.94-4.13v-18.3h2.27v18.2c0,1.51.5,2.27,2.08,2.27h1.23v2Z" transform="translate(-55.03 -305.86)"/><path class="cls-1" d="M280.89,499.26a9.77,9.77,0,0,1-7.68-3l1.64-1.64a7.7,7.7,0,0,0,6.11,2.46c3.28,0,5.29-1.54,5.29-4.16a3.61,3.61,0,0,0-1.07-2.8,4.83,4.83,0,0,0-2.93-1.07l-2.61-.41a8.15,8.15,0,0,1-4.13-1.7,5.3,5.3,0,0,1-1.7-4.19c0-3.81,2.74-6.33,7.18-6.33a9,9,0,0,1,6.68,2.46l-1.54,1.54a7.06,7.06,0,0,0-5.23-1.92c-3,0-4.72,1.67-4.72,4.16a3.24,3.24,0,0,0,1,2.58,6.45,6.45,0,0,0,3,1.23l2.46.38a7.22,7.22,0,0,1,4.09,1.58,5.61,5.61,0,0,1,1.89,4.44C288.64,496.83,285.55,499.26,280.89,499.26Z" transform="translate(-55.03 -305.86)"/><path class="cls-1" d="M303.19,497.5a6.47,6.47,0,0,1-8.88,0c-1.58-1.61-1.89-3.78-1.89-6.17s.31-4.57,1.89-6.17a6.47,6.47,0,0,1,8.88,0c1.57,1.61,1.89,3.78,1.89,6.17S304.76,495.89,303.19,497.5Zm-1.61-11a4,4,0,0,0-2.83-1.13,3.9,3.9,0,0,0-2.8,1.13c-1.13,1.13-1.26,3.05-1.26,4.79s.13,3.65,1.26,4.79a3.9,3.9,0,0,0,2.8,1.13,4,4,0,0,0,2.83-1.13c1.13-1.13,1.23-3.06,1.23-4.79S302.72,487.67,301.58,486.54Z" transform="translate(-55.03 -305.86)"/><path class="cls-1" d="M313.8,499.07c-2.7,0-3.93-1.76-3.93-4.13v-18.3h2.26v18.2c0,1.51.5,2.27,2.08,2.27h1.22v2Z" transform="translate(-55.03 -305.86)"/><path class="cls-1" d="M328.06,499.07v-1.48a5.44,5.44,0,0,1-4.47,1.67c-2.14,0-3.4-.41-4.38-1.42a4.46,4.46,0,0,1-1.17-3.15c0-2.71,1.89-4.47,5.35-4.47h4.66v-1.48c0-2.27-1.13-3.4-4-3.4-2,0-3,.47-3.9,1.76l-1.54-1.42c1.38-1.8,3-2.3,5.48-2.3,4.16,0,6.2,1.8,6.2,5.17v10.52Zm0-7.15h-4.35c-2.33,0-3.46.95-3.46,2.74s1.1,2.65,3.56,2.65a4.53,4.53,0,0,0,3.46-1,3.58,3.58,0,0,0,.79-2.68Z" transform="translate(-55.03 -305.86)"/><path class="cls-1" d="M344.51,486.54a3.24,3.24,0,0,0-2.68-1.13c-2.27,0-3.72,1.8-3.72,4.16v9.51h-2.27v-15.5h2.27v1.89a5.2,5.2,0,0,1,4.35-2.08,4.77,4.77,0,0,1,3.72,1.45Z" transform="translate(-55.03 -305.86)"/><path class="cls-1" d="M357.36,499.07V476.65h13.92v2.14H359.75v7.91h9.83v2.14h-9.83v8.09h11.53v2.14Z" transform="translate(-55.03 -305.86)"/><path class="cls-1" d="M385.77,499.07v-9.54c0-2.74-1.48-4.13-3.81-4.13s-3.84,1.42-3.84,4.13v9.54h-2.27v-15.5h2.27v1.7a5.58,5.58,0,0,1,4.35-1.89,5.43,5.43,0,0,1,4,1.45,5.73,5.73,0,0,1,1.61,4.31v9.92Z" transform="translate(-55.03 -305.86)"/><path class="cls-1" d="M395,491.92c0,3.4,1.61,5.35,4.57,5.35a5.09,5.09,0,0,0,4.06-1.76l1.54,1.35a7.1,7.1,0,0,1-5.67,2.39c-4.1,0-6.77-2.46-6.77-7.94,0-5,2.42-7.94,6.36-7.94s6.36,2.9,6.36,7.5v1Zm7.71-4.28a4,4,0,0,0-7.24,0,6.49,6.49,0,0,0-.47,2.58h8.19A6.49,6.49,0,0,0,402.69,487.64Z" transform="translate(-55.03 -305.86)"/><path class="cls-1" d="M418.91,486.54a3.24,3.24,0,0,0-2.68-1.13c-2.27,0-3.72,1.8-3.72,4.16v9.51h-2.27v-15.5h2.27v1.89a5.2,5.2,0,0,1,4.35-2.08,4.77,4.77,0,0,1,3.72,1.45Z" transform="translate(-55.03 -305.86)"/><path class="cls-1" d="M427.42,506.19a6.84,6.84,0,0,1-5.26-2.08l1.48-1.45a4.77,4.77,0,0,0,3.72,1.54c3,0,4.25-2.11,4.25-4.76V497a5,5,0,0,1-4.35,2,5.33,5.33,0,0,1-3.75-1.39c-1.54-1.54-1.89-3.94-1.89-6.46s.35-4.91,1.89-6.46a5.4,5.4,0,0,1,3.78-1.35,4.89,4.89,0,0,1,4.35,2v-1.83h2.23v16C433.87,503.38,431.48,506.19,427.42,506.19Zm.35-20.79c-3.37,0-3.87,2.9-3.87,5.79s.5,5.79,3.87,5.79,3.84-2.9,3.84-5.79S431.13,485.4,427.76,485.4Z" transform="translate(-55.03 -305.86)"/><path class="cls-1" d="M443.39,502.82a4.51,4.51,0,0,1-1.1,1.83,4.25,4.25,0,0,1-3,1.07h-1v-2H439c1.58,0,2-.5,2.55-1.92l1.1-3-5.57-15.18h2.46L443.76,496,448,483.58h2.46Z" transform="translate(-55.03 -305.86)"/><path class="cls-1" d="M467.64,499.26a9.77,9.77,0,0,1-7.68-3l1.64-1.64a7.7,7.7,0,0,0,6.11,2.46c3.28,0,5.29-1.54,5.29-4.16a3.61,3.61,0,0,0-1.07-2.8,4.83,4.83,0,0,0-2.93-1.07l-2.61-.41a8.15,8.15,0,0,1-4.12-1.7,5.3,5.3,0,0,1-1.7-4.19c0-3.81,2.74-6.33,7.18-6.33a9,9,0,0,1,6.68,2.46l-1.54,1.54a7.07,7.07,0,0,0-5.23-1.92c-3,0-4.72,1.67-4.72,4.16a3.24,3.24,0,0,0,1,2.58,6.46,6.46,0,0,0,3,1.23l2.46.38a7.22,7.22,0,0,1,4.09,1.58,5.61,5.61,0,0,1,1.89,4.44C475.39,496.83,472.3,499.26,467.64,499.26Z" transform="translate(-55.03 -305.86)"/><path class="cls-1" d="M489.94,497.5a6.47,6.47,0,0,1-8.88,0c-1.57-1.61-1.89-3.78-1.89-6.17s.32-4.57,1.89-6.17a6.47,6.47,0,0,1,8.88,0c1.57,1.61,1.89,3.78,1.89,6.17S491.52,495.89,489.94,497.5Zm-1.61-11a4,4,0,0,0-2.84-1.13,3.9,3.9,0,0,0-2.8,1.13c-1.13,1.13-1.26,3.05-1.26,4.79s.13,3.65,1.26,4.79a3.9,3.9,0,0,0,2.8,1.13,4,4,0,0,0,2.84-1.13c1.13-1.13,1.23-3.06,1.23-4.79S489.47,487.67,488.34,486.54Z" transform="translate(-55.03 -305.86)"/><path class="cls-1" d="M502.7,499.26c-3.9,0-6.87-2.64-6.87-7.94s3-7.94,6.87-7.94a6.14,6.14,0,0,1,5.1,2.3l-1.54,1.45a4.26,4.26,0,0,0-3.56-1.73,4.2,4.2,0,0,0-3.59,1.76,9.08,9.08,0,0,0,0,8.31,4.2,4.2,0,0,0,3.59,1.76,4.29,4.29,0,0,0,3.56-1.76L507.8,497A6.14,6.14,0,0,1,502.7,499.26Z" transform="translate(-55.03 -305.86)"/><path class="cls-1" d="M512,479.17v-2.55h2.55v2.55Zm.13,19.9v-15.5h2.27v15.5Z" transform="translate(-55.03 -305.86)"/><path class="cls-1" d="M521.51,491.92c0,3.4,1.61,5.35,4.57,5.35a5.09,5.09,0,0,0,4.06-1.76l1.54,1.35a7.1,7.1,0,0,1-5.67,2.39c-4.1,0-6.77-2.46-6.77-7.94,0-5,2.42-7.94,6.36-7.94s6.36,2.9,6.36,7.5v1Zm7.71-4.28a4,4,0,0,0-7.24,0,6.49,6.49,0,0,0-.47,2.58h8.19A6.49,6.49,0,0,0,529.22,487.64Z" transform="translate(-55.03 -305.86)"/><path class="cls-1" d="M541.13,499.07c-2.64,0-4-1.86-4-4.16V485.4h-2v-1.73h2v-4.85h2.27v4.85h3.31v1.73h-3.31v9.45c0,1.42.66,2.27,2.11,2.27h1.2v2Z" transform="translate(-55.03 -305.86)"/><path class="cls-1" d="M551.08,502.82a4.51,4.51,0,0,1-1.1,1.83,4.25,4.25,0,0,1-3,1.07h-1v-2h.69c1.58,0,2-.5,2.55-1.92l1.1-3-5.57-15.18h2.46L551.46,496l4.22-12.44h2.46Z" transform="translate(-55.03 -305.86)"/><path class="cls-1" d="M292.93,423.28H275.88V337h17.05Z" transform="translate(-55.03 -305.86)"/><polygon class="cls-1" points="350.83 45.79 350.83 31.97 308.81 31.97 308.81 117.42 350.83 117.42 350.83 103.6 325.87 103.6 325.87 80.8 345.73 80.8 345.73 66.97 325.87 66.97 325.87 45.79 350.83 45.79"/><path class="cls-2" d="M334.47,373.55l-5.56-1.79c-7-2.51-9.16-4.85-9.16-10.05a8.55,8.55,0,0,1,8.62-8.8c4.85,0,8.08,3.23,8.44,8.44L352.53,360c-1-13.31-11.5-23.22-24.34-23.22-13.64,0-24.59,11.31-24.59,25.31a24,24,0,0,0,5,15.26c3.23,4.49,6.45,6.46,15.79,9.7l3.41,1.26c7.54,2.69,9.87,5,9.87,10.23,0,5.56-3.95,9.7-9.33,9.7a9.29,9.29,0,0,1-9.7-9.52l-15.93,1.39A24,24,0,0,0,306.12,412c4.49,7.54,13.63,12.57,22.61,12.57,13.65,0,25.31-11.85,25.31-25.85a26.46,26.46,0,0,0-5.92-16.33C344.88,378.22,341.47,376.06,334.47,373.55Z" transform="translate(-55.03 -305.86)"/><path class="cls-1" d="M444.42,373.55l-5.56-1.79c-7-2.51-9.15-4.85-9.15-10.05a8.55,8.55,0,0,1,8.62-8.8c4.85,0,8.08,3.23,8.44,8.44L462.48,360c-1-13.31-11.5-23.22-24.35-23.22-13.64,0-24.58,11.31-24.58,25.31a24,24,0,0,0,5,15.26c3.23,4.49,6.45,6.46,15.79,9.7l3.41,1.26c7.54,2.69,9.87,5,9.87,10.23,0,5.56-3.95,9.7-9.33,9.7a9.29,9.29,0,0,1-9.7-9.52l-15.93,1.39A23.94,23.94,0,0,0,416.06,412c4.49,7.54,13.63,12.57,22.61,12.57,13.65,0,25.31-11.85,25.31-25.85a26.46,26.46,0,0,0-5.92-16.33C454.83,378.22,451.42,376.06,444.42,373.55Z" transform="translate(-55.03 -305.86)"/></g></svg>