<?xml version="1.0" ?><!DOCTYPE svg  PUBLIC '-//W3C//DTD SVG 1.1//EN'  'http://www.w3.org/Graphics/SVG/1.1/DTD/svg11.dtd'><svg enable-background="new 0 0 512 512" height="512px" id="Layer_1" version="1.1" viewBox="0 0 512 512" width="512px" xml:space="preserve" xmlns="http://www.w3.org/2000/svg" xmlns:xlink="http://www.w3.org/1999/xlink"><path d="M251.823,446.874H256h4.177h7.498v-0.39c99.829-6.058,179.202-89.161,179.202-190.481  c0-101.327-79.373-184.43-179.202-190.481c-2.478-0.151-4.97-0.233-7.473-0.283c-1.396-0.038-2.793-0.113-4.202-0.113  s-2.806,0.075-4.202,0.113c-2.503,0.05-4.995,0.132-7.473,0.283c-99.829,6.051-179.202,89.154-179.202,190.481  c0,101.32,79.373,184.423,179.202,190.481v0.39H251.823z M290.472,419.938c27.93-27.389,48.229-55.966,60.741-85.55h52.775  C381.016,377.592,339.688,409.61,290.472,419.938z M423.528,256.003c0,19.281-3.314,37.787-9.336,55.042h-54.777  c4.719-16.776,7.084-33.83,6.945-51.16c-0.164-20.859-3.85-40.592-9.713-58.929h57.545  C420.213,218.217,423.528,236.723,423.528,256.003z M403.989,177.612h-56.273c-16.406-37-40.436-66.691-58.715-85.852  C338.871,101.761,380.789,133.975,403.989,177.612z M267.675,103.535c15.626,15.89,37.78,41.737,54.022,74.076h-54.022V103.535z   M267.675,200.956h64.138c6.719,18.361,11.047,38.265,11.197,59.249c0.125,17.186-2.598,34.139-8.027,50.84h-67.308V200.956z   M267.675,334.388h57.847c-12.568,25.778-31.842,50.877-57.847,75.127V334.388z M244.325,311.045h-67.308  c-5.429-16.701-8.152-33.654-8.027-50.84c0.151-20.984,4.479-40.888,11.197-59.249h64.137V311.045z M244.325,177.612h-54.022  c16.242-32.339,38.396-58.193,54.022-74.083V177.612z M223.001,91.76c-18.28,19.161-42.31,48.852-58.715,85.852h-56.274  C131.21,133.975,173.13,101.761,223.001,91.76z M88.473,256.003c0-19.28,3.315-37.787,9.335-55.047h57.545  c-5.862,18.336-9.542,38.069-9.712,58.929c-0.138,17.33,2.227,34.384,6.945,51.16H97.808  C91.788,293.79,88.473,275.284,88.473,256.003z M108.011,334.388h52.777c12.518,29.584,32.811,58.161,60.747,85.55  C172.312,409.61,130.984,377.592,108.011,334.388z M186.478,334.388h57.847v75.127C218.321,385.265,199.047,360.167,186.478,334.388  z"/></svg>