<?xml version="1.0" ?><!DOCTYPE svg  PUBLIC '-//W3C//DTD SVG 1.1//EN'  'http://www.w3.org/Graphics/SVG/1.1/DTD/svg11.dtd'><svg enable-background="new 0 0 32 32" version="1.1" viewBox="0 0 32 32" xml:space="preserve" xmlns="http://www.w3.org/2000/svg" xmlns:xlink="http://www.w3.org/1999/xlink"><g id="Energy20"/><g id="Energy19"/><g id="Energy18"/><g id="Energy17"/><g id="Energy16"/><g id="Energy15"/><g id="Energy14"/><g id="Energy13"/><g id="Energy12"/><g id="Energy11"/><g id="Energy10"/><g id="Energy09"/><g id="Energy08"/><g id="Energy07"/><g id="Energy06"/><g id="Energy05"/><g id="Energy04"/><g id="Energy03"/><g id="Energy02"><g><path d="M30.63,16.77l-4.29,3.51l0.55,5.52c0.03,0.3-0.07,0.59-0.28,0.81c-0.22,0.21-0.51,0.31-0.81,0.28    l-5.52-0.55l-3.51,4.29C16.58,30.86,16.3,31,16,31s-0.58-0.14-0.77-0.37l-3.51-4.29L6.2,26.89c-0.3,0.03-0.59-0.07-0.81-0.28    c-0.21-0.22-0.31-0.51-0.28-0.81l0.55-5.52l-4.29-3.51C1.14,16.58,1,16.3,1,16s0.14-0.58,0.37-0.77l4.29-3.51L5.11,6.2    C5.08,5.9,5.18,5.61,5.39,5.39C5.61,5.18,5.9,5.07,6.2,5.11l5.52,0.55l3.51-4.29c0.37-0.47,1.17-0.47,1.54,0l3.51,4.29l5.52-0.55    c0.3-0.04,0.59,0.07,0.81,0.28C26.82,5.61,26.92,5.9,26.89,6.2l-0.55,5.52l4.29,3.51C30.86,15.42,31,15.7,31,16    S30.86,16.58,30.63,16.77z" fill="#FFB841"/></g><g><path d="M23,16c0,3.86-3.14,7-7,7s-7-3.14-7-7s3.14-7,7-7S23,12.14,23,16z" fill="#EB8235"/></g></g><g id="Energy01"/></svg>