<svg id="Bioenergy" xmlns="http://www.w3.org/2000/svg" width="220.867" height="270.647" viewBox="0 0 220.867 270.647">
  <path id="Path_23" data-name="Path 23" d="M261.79,474.19h59.437v10.389H261.79Z" transform="translate(-218.931 -280.771)" fill="#0874a4"/>
  <path id="Path_24" data-name="Path 24" d="M374.147,431.551h26.617a17.863,17.863,0,0,0,17.872-17.831V402.6a23.252,23.252,0,0,0,21.311-23.137V357.47a3.209,3.209,0,0,0-3.185-3.185H429.5V333.228a3.185,3.185,0,0,0-6.37,0v21.057H407.723V333.228a3.185,3.185,0,1,0-6.37,0v21.057h-7.26a3.209,3.209,0,0,0-3.185,3.185V379.46A23.227,23.227,0,0,0,412.264,402.6v11.124a11.479,11.479,0,0,1-11.5,11.463H374.143a17.9,17.9,0,0,0-17.872,17.872v2.293a17.9,17.9,0,0,0,17.872,17.872h46.4a11.484,11.484,0,1,1,0,22.968H306.351a11.515,11.515,0,0,1-11.5-11.5V455.2h.254a26.323,26.323,0,0,0,26.063-23.116H262.158A26.337,26.337,0,0,0,288.264,455.2h.213v19.485a17.873,17.873,0,0,0,17.872,17.872h114.2a17.851,17.851,0,1,0,0-35.7h-46.4a11.514,11.514,0,0,1-11.5-11.5v-2.293a11.515,11.515,0,0,1,11.5-11.5Z" transform="translate(-219.081 -221.909)" fill="#0874a4"/>
  <path id="Path_25" data-name="Path 25" d="M276.452,354.12q-.766,0-1.414.03c-.157,3.689.146,10.624,4.1,14.581,3.481,3.481,9.679,4.315,14.577,4.1.571-13.326-5.26-18.713-17.262-18.713Z" transform="translate(-224.328 -231.741)" fill="#0874a4"/>
  <path id="Path_26" data-name="Path 26" d="M332.053,368.726c3.922-3.927,4.236-10.888,4.093-14.581-.428-.018-.9-.03-1.405-.03-12,0-17.833,5.387-17.264,18.713,4.9.213,11.1-.619,14.577-4.1Z" transform="translate(-241.655 -231.738)" fill="#0874a4"/>
  <path id="Path_27" data-name="Path 27" d="M315.071,255.686a9.772,9.772,0,1,1-9.772-9.772,9.772,9.772,0,0,1,9.772,9.772" transform="translate(-232.707 -187.555)" fill="#0874a4"/>
  <path id="Path_28" data-name="Path 28" d="M328.5,191.1c-10.53-24.242-32.266-40.459-58.2-43.346a72.674,72.674,0,0,0-65.846,116.413c14.435,18.678,23.391,39.694,25.94,60.751l1.1,9.425h27.3V294.732c-6.878.254-14.306-1.146-19.148-5.944-7.812-7.853-5.773-21.907-5.688-22.543a3.2,3.2,0,0,1,2.674-2.632,28,28,0,0,1,4.84-.34c8.447,0,16.386,2.461,20.5,9.806,4.118-7.345,12.057-9.806,20.463-9.806,3.4,0,7.005-.127,7.513,2.972.086.636,2.122,14.69-5.69,22.543-4.84,4.8-12.27,6.2-19.1,5.944V334.34h27.17l.679-5.688c2.718-22.628,12.142-45.257,27.214-65.508A71.515,71.515,0,0,0,328.5,191.1Zm-38.039,34.981c11.59,13.331,1.528,23.6-11,17.449.171,14.052-12.524,17.278-19.231,5.138-7.812,11.547-20.123,7.174-18.678-6.878-13.118,5.052-20.59-5.732-11.377-16.344-13.67-3.481-14.35-17.532,2.505-20.421-11.845-13.458-1.444-23.731,11.124-17.49-.34-14.179,12.524-17.7,19.316-5.221,7.9-11.93,20.336-7.386,18.808,6.792,13.372-5.265,20.888,5.646,11.5,16.386,14.091,3.4,14.856,17.916-2.974,20.59Z" transform="translate(-189.35 -147.277)" fill="#0874a4"/>
  <path id="Path_29" data-name="Path 29" d="M308.747,243.481c8.66-.086,14.264-1.953,14.264-4.712,0-2.42-4.287-4.16-11.207-4.627a3.177,3.177,0,0,1-1.782-5.646c11.5-9.3,7.641-15.452-5.35-7.557a3.188,3.188,0,0,1-4.712-3.61c4.2-14.477-2.718-16.811-8.7-3.141A3.1,3.1,0,0,1,288.2,216.1a3.142,3.142,0,0,1-2.887-2.166c-4.84-14.35-11.8-12.1-8.916,2.42a3.158,3.158,0,0,1-1.4,3.312,3.2,3.2,0,0,1-3.608-.086c-12.483-9.127-17.449-2.928-3.947,8.872a3.151,3.151,0,0,1-1.994,5.561c-17.662.467-17.49,8.278-2.632,9.339A3.181,3.181,0,0,1,264.6,249c-7.218,5.9-8.66,11.038-3.906,11.038,6.072,0,9.51-5.773,12.779-3.268a3.229,3.229,0,0,1,1.1,3.4c-4.033,14.138,2.632,16.557,8.618,3.226a3.135,3.135,0,0,1,2.887-1.911h.127a3.264,3.264,0,0,1,2.887,2.166c4.8,13.8,11.632,11.886,8.916-2.334A3.287,3.287,0,0,1,299.451,258a3.208,3.208,0,0,1,3.566.127c12.991,9.383,16.386,1.953,3.693-9.043a3.2,3.2,0,0,1,2.036-5.6Zm-21.269,11.336a16.154,16.154,0,1,1,16.132-16.132A16.18,16.18,0,0,1,287.478,254.817Z" transform="translate(-214.899 -170.541)" fill="#0874a4"/>
</svg>
