<svg id="hydopower" xmlns="http://www.w3.org/2000/svg" xmlns:xlink="http://www.w3.org/1999/xlink" width="270.647" height="270.647" viewBox="0 0 270.647 270.647">
  <defs>
    <clipPath id="clip-path">
      <path id="Path_37" data-name="Path 37" d="M139.21,446h63.316v95.319H139.21Z" transform="translate(-139.21 -446)" fill="#0874a4"/>
    </clipPath>
    <clipPath id="clip-path-2">
      <path id="Path_39" data-name="Path 39" d="M350,139.21H451.725V296.25H350Z" transform="translate(-350 -139.21)" fill="#0874a4"/>
    </clipPath>
    <clipPath id="clip-path-3">
      <path id="Path_41" data-name="Path 41" d="M207,423H438.905v94.868H207Z" transform="translate(-207 -423)" fill="#0874a4"/>
    </clipPath>
  </defs>
  <g id="Group_1" data-name="Group 1" transform="translate(0 175.328)" clip-path="url(#clip-path)">
    <path id="Path_36" data-name="Path 36" d="M139.21,458.42l28.565-11.749,34.218,83.186-28.565,11.749Z" transform="translate(-139.21 -446.288)" fill="#0874a4"/>
  </g>
  <g id="Group_2" data-name="Group 2" transform="translate(120.465)" clip-path="url(#clip-path-2)">
    <path id="Path_38" data-name="Path 38" d="M401.017,295.885c30.262,0,50.707-21.837,50.707-52.111,0-14.711-8.621-30.278-30.814-64.167a179.981,179.981,0,0,1-19.893-40.4,208.934,208.934,0,0,1-19.9,40.4c-21.657,34.231-30.814,49.454-30.814,64.167.027,30.274,20.444,52.111,50.711,52.111Zm7.956-16.43c14.287-3.174,23.157-15.263,23.157-31.575h0a40.531,40.531,0,0,0-5.572-17.312,2.915,2.915,0,0,1,5.188-2.65,45.215,45.215,0,0,1,6.2,19.962c0,19.172-10.624,33.448-27.72,37.243l0,0a3.162,3.162,0,0,1-.632.069,2.91,2.91,0,0,1-.632-5.753Z" transform="translate(-350.131 -139.211)" fill="#0874a4"/>
  </g>
  <g id="Group_3" data-name="Group 3" transform="translate(38.741 162.184)" clip-path="url(#clip-path-3)">
    <path id="Path_40" data-name="Path 40" d="M438.1,453.377c-2.853-5.3-9.135-7.273-17.576-4.512-9.253,3.027-37.89,11.756-37.89,11.756l-29.49,6.907v0a23.526,23.526,0,0,1-3.145,13.408,16.791,16.791,0,0,1-14.142,7.7,16.467,16.467,0,0,1-6.733-1.433l-30.762-13.77a2.909,2.909,0,0,1,2.373-5.311l30.765,13.74a10.921,10.921,0,0,0,13.588-4.076,18.961,18.961,0,0,0,1.69-13.6c-.1-.373-.232-.694-.35-1.043l0,0a13.4,13.4,0,0,0-3.947-3.235s-46.05-28.1-60.944-34.752a26.558,26.558,0,0,0-18.569-.292c-7.454,3.085-33.995,14.028-33.995,14.028L207.963,447.5l22.7,55.115,23.681-9.778,61.75,23.574v0a19.61,19.61,0,0,0,13.153.288,432.479,432.479,0,0,0,65.481-27.177c14.26-7.392,25.141-12.573,36.649-19.5,4.855-2.909,10.443-9.778,6.717-16.652Z" transform="translate(-207.413 -423.139)" fill="#0874a4"/>
  </g>
</svg>
