<svg id="ocean" xmlns="http://www.w3.org/2000/svg" width="337.622" height="270.647" viewBox="0 0 337.622 270.647">
  <path id="Path_42" data-name="Path 42" d="M213.654,305.743a464.955,464.955,0,0,1-46.954,28.7,3.514,3.514,0,1,0,3.725,5.96,540.343,540.343,0,0,0,46.954-28.321c3.353-2.61,0-8.944-3.725-6.335Z" transform="translate(-162.289 -235.146)" fill="#0874a4"/>
  <path id="Path_43" data-name="Path 43" d="M448.005,505.093c4.1-12.3,22.358-7.826,31.675-5.963a175.675,175.675,0,0,1,33.913,9.317,3.726,3.726,0,0,0,2.982-6.707,101.678,101.678,0,0,1-22.358-14.907c-2.61-2.235-7.826-5.963-4.1-10.06s10.06-1.491,13.788,0,15.28,7.079,23.105,10.06h0a125.866,125.866,0,0,0,25.715,5.219c4.472.372,4.472-6.335,0-7.079v0a110.993,110.993,0,0,1-34.656-9.317c-8.57-4.1-19-10.807-28.693-6.707a11.925,11.925,0,0,0-3.728,19.752,116.7,116.7,0,0,0,27.2,19.377l2.982-6.707a198.867,198.867,0,0,0-43.973-10.436c-11.926-1.491-26.086-1.119-30.556,12.3-1.491,4.472,5.216,6.335,6.707,1.863Z" transform="translate(-221.12 -269.788)" fill="#0874a4"/>
  <path id="Path_44" data-name="Path 44" d="M544.2,456.034l-42.11-17.139a62.6,62.6,0,0,0-19.749-5.591,42.465,42.465,0,0,0-17.886,4.472c-12.67,6.335-24.221,14.533-37.266,20.868A437.218,437.218,0,0,1,386.2,476.158c-4.472,1.491-2.61,8.2,1.863,6.707a441.052,441.052,0,0,0,74.529-35.772,37.62,37.62,0,0,1,19-6.707c6.707,0,13.042,3.353,19.377,5.591l41.366,16.768c4.1,1.863,5.963-4.844,1.863-6.707Z" transform="translate(-208.876 -262.464)" fill="#0874a4"/>
  <path id="Path_45" data-name="Path 45" d="M259.608,392.154a54.433,54.433,0,0,1,8.2-12.295,31.656,31.656,0,0,1,12.67-7.826l15.652-6.335a30.161,30.161,0,0,1,16.023-2.982c3.725.744,11.551,4.472,9.688,9.317s-7.454,5.591-10.436,8.944-.372,8.2-1.491,12.67-6.335,8.944-10.436,12.3l0,0a2.982,2.982,0,0,0-.744,3.353c1.491,7.826,5.216,15.28,3.725,23.477s6.335,6.335,7.079,1.863-2.235-17.886-4.1-27.2l-1.119,3.353h0a33.148,33.148,0,0,0,12.3-14.533,26.164,26.164,0,0,0,.375-9.317c0-1.491-.372-1.119.744-2.234s2.982-1.491,4.1-2.61,8.57-8.2,7.079-13.788A17.146,17.146,0,0,0,318.113,357.5c-13.042-5.591-26.459,2.61-38.381,7.454a54.854,54.854,0,0,0-15.28,8.2,73.03,73.03,0,0,0-11.179,15.279,3.726,3.726,0,0,0,6.335,3.725Z" transform="translate(-181.04 -245.908)" fill="#0874a4"/>
  <path id="Path_46" data-name="Path 46" d="M313.459,337.951A43.96,43.96,0,0,1,334.7,298.826c7.454-4.1,16.4-4.844,24.221-8.57v0a29.076,29.076,0,0,0,14.161-14.9l-6.707-1.119c-.744,11.551,10.436,18.633,20.868,17.886s12.3-3.725,18.633-3.725a19,19,0,0,1,15.276,8.57c2.982,3.725,7.826-1.491,5.216-4.844h0a25.341,25.341,0,0,0-24.224-10.432c-5.963,1.119-11.926,3.725-18.261,3.353h0a10.439,10.439,0,0,1-10.435-10.807c0-4.1-5.591-4.472-7.079-.744s-12.67,11.551-20.868,13.788l0,0a64.473,64.473,0,0,0-21.612,10.436,52.15,52.15,0,0,0-17.514,40.245,3.725,3.725,0,0,0,7.079,0Z" transform="translate(-192.408 -227.853)" fill="#0874a4"/>
  <path id="Path_47" data-name="Path 47" d="M227.925,547.509a74.19,74.19,0,0,0,6.335-13.417c2.61-5.963,7.826-6.707,13.417-4.472a156.208,156.208,0,0,1,17.142,9.688l8.57,5.216v0a59.153,59.153,0,0,1,7.826,5.588c3.725,2.61,7.079-3.353,3.353-6.335a85.8,85.8,0,0,0-8.57-5.963l-9.317-5.591c-6.335-3.725-13.042-8.57-20.124-10.06v0a16.019,16.019,0,0,0-16.771,5.216c-3.353,4.472-3.353,10.807-7.079,15.279s2.235,8.57,5.216,4.844Z" transform="translate(-174.325 -281.272)" fill="#0874a4"/>
  <path id="Path_48" data-name="Path 48" d="M325.988,536.477c-7.454-5.216-14.9-10.436-21.986-16.023s-12.3-11.179-10.435-18.633,11.179-8.57,17.514-5.963,14.9,7.826,22.358,11.551c29.44,15.652,61.487,24.967,93.536,33.913h0a3.48,3.48,0,1,0,1.863-6.707c-29.812-8.57-60.368-17.142-88.319-31.3-6.707-3.353-13.042-7.079-19.377-10.807a35.788,35.788,0,0,0-18.261-5.216,17.89,17.89,0,0,0-15.651,23.105,33.554,33.554,0,0,0,13.042,15.652c7.079,5.963,14.533,11.179,21.986,16.77s7.079-3.353,3.725-6.335Z" transform="translate(-188.161 -273.97)" fill="#0874a4"/>
  <path id="Path_49" data-name="Path 49" d="M168.9,357.969a398.151,398.151,0,0,0,36.519-46.211c10.807-16.023,19.377-33.537,32.047-48.073v0a118.5,118.5,0,0,1,96.888-40.247,126.3,126.3,0,0,1,55.523,15.28,69.768,69.768,0,0,1,19.752,14.533,48.7,48.7,0,0,1,7.451,10.436,13.768,13.768,0,0,1,2.61,5.216c.744,3.725-1.863,4.1-5.216,4.844a93.86,93.86,0,0,0-26.459,7.826,53.7,53.7,0,0,0-16.4,15.28,142.3,142.3,0,0,0-13.042,21.986,161.139,161.139,0,0,0-10.435,24.967,57.773,57.773,0,0,0,2.238,39.5c7.079,15.28,21.986,25.34,36.891,31.675,4.1,1.491,7.826-4.472,3.353-6.335-13.788-5.963-27.95-14.533-34.284-29.065l0,0a54.4,54.4,0,0,1,.372-39.129,184.051,184.051,0,0,1,12.3-26.083A72.566,72.566,0,0,1,383.546,293.5a49.2,49.2,0,0,1,25.712-11.554c7.079-1.491,17.514-1.491,17.514-11.179s-5.591-14.9-10.436-20.124h0a68.23,68.23,0,0,0-18.633-15.652,129.331,129.331,0,0,0-52.171-17.514,128.2,128.2,0,0,0-101.365,29.44c-16.4,14.161-26.459,32.422-38.01,50.679a402.86,402.86,0,0,1-42.107,55.523c-2.982,3.353,1.863,8.2,4.844,4.844Z" transform="translate(-161.878 -216.192)" fill="#0874a4"/>
  <path id="Path_50" data-name="Path 50" d="M165.955,509.2c23.1-4.844,43.226-15.652,63.721-26.831a312.128,312.128,0,0,0,30.559-17.886c4.844-2.982,9.688-7.079,15.652-7.079v0a29.054,29.054,0,0,1,16.767,5.591c10.06,5.591,19.377,11.926,29.066,17.142l0,0a158.744,158.744,0,0,0,27.2,11.926c10.06,2.982,19.377,8.944,29.066,13.417h0A305.074,305.074,0,0,0,408.549,517.4a343.136,343.136,0,0,0,74.529,17.142c4.472.744,4.472-6.335,0-6.707a380.416,380.416,0,0,1-67.821-15.28c-11.551-4.1-22.73-8.2-33.913-13.417s-18.633-9.688-28.321-13.042l-12.3-4.472-15.28-7.454c-10.06-5.216-19.377-11.551-29.066-17.142s-19-9.317-29.066-4.844v0a71.889,71.889,0,0,0-13.414,8.2,166.592,166.592,0,0,1-16.77,10.06c-23.1,13.042-46.954,26.459-73.038,32.047v0a3.48,3.48,0,0,0,1.863,6.707Z" transform="translate(-161.542 -266.065)" fill="#0874a4"/>
</svg>
