<svg xmlns="http://www.w3.org/2000/svg" width="270.363" height="270.647" viewBox="0 0 270.363 270.647">
  <g id="solar" transform="translate(-150.581 -150.581)">
    <path id="Path_51" data-name="Path 51" d="M368.807,194.931a10.8,10.8,0,0,0,10.8-10.8V161.384a10.8,10.8,0,0,0-21.606,0v22.744a10.8,10.8,0,0,0,10.8,10.8Z" transform="translate(-82.906)" fill="#0874a4"/>
    <path id="Path_52" data-name="Path 52" d="M230.857,246.207a10.982,10.982,0,0,0,7.675,3.128,11.508,11.508,0,0,0,7.675-3.128,10.471,10.471,0,0,0,0-15.069l-15.92-15.92a10.655,10.655,0,0,0-15.069,15.069Z" transform="translate(-24.556 -24.556)" fill="#0874a4"/>
    <path id="Path_53" data-name="Path 53" d="M194.931,368.807a10.8,10.8,0,0,0-10.8-10.8H161.384a10.8,10.8,0,1,0,0,21.606h22.744a10.8,10.8,0,0,0,10.8-10.8Z" transform="translate(0 -82.906)" fill="#0874a4"/>
    <path id="Path_54" data-name="Path 54" d="M230.67,480.9l-15.92,15.92a10.471,10.471,0,0,0,0,15.069,10.982,10.982,0,0,0,7.675,3.128,11.508,11.508,0,0,0,7.675-3.128l15.92-15.92a10.471,10.471,0,0,0,0-15.069A10.806,10.806,0,0,0,230.67,480.9Z" transform="translate(-24.369 -130.748)" fill="#0874a4"/>
    <path id="Path_55" data-name="Path 55" d="M368.807,527.55a10.8,10.8,0,0,0-10.8,10.8V561.1a10.8,10.8,0,0,0,21.606,0V538.353A10.8,10.8,0,0,0,368.807,527.55Z" transform="translate(-82.906 -150.672)" fill="#0874a4"/>
    <path id="Path_56" data-name="Path 56" d="M496.518,480.9a10.471,10.471,0,0,0-15.069,0c-3.979,4.265-4.266,11.087,0,15.069l15.92,15.92a10.982,10.982,0,0,0,7.675,3.128,11.508,11.508,0,0,0,7.675-3.128,10.471,10.471,0,0,0,0-15.069Z" transform="translate(-131.01 -130.748)" fill="#0874a4"/>
    <path id="Path_57" data-name="Path 57" d="M560.624,358H537.88a10.8,10.8,0,0,0,0,21.606h22.744a10.8,10.8,0,0,0,0-21.606Z" transform="translate(-150.483 -82.904)" fill="#0874a4"/>
    <path id="Path_58" data-name="Path 58" d="M488.58,249.334a11.508,11.508,0,0,0,7.675-3.128l15.92-15.92a10.655,10.655,0,1,0-15.069-15.069l-16.2,15.639a10.471,10.471,0,0,0,0,15.069,10.6,10.6,0,0,0,7.675,3.41Z" transform="translate(-130.75 -24.556)" fill="#0874a4"/>
    <path id="Path_59" data-name="Path 59" d="M326.786,252.87A73.916,73.916,0,1,0,400.7,326.786,74.133,74.133,0,0,0,326.786,252.87Zm29.284,68.513-26.155,48.9a6.326,6.326,0,0,1-11.941-3.128V341.568a2.322,2.322,0,0,0-2.558-2.275l-11.373,1.988A6.354,6.354,0,0,1,297.5,331.9L323.66,283a6.326,6.326,0,0,1,11.941,3.128v25.586a2.322,2.322,0,0,0,2.558,2.275l11.657-1.7a6.089,6.089,0,0,1,6.254,9.1Z" transform="translate(-40.884 -40.884)" fill="#0874a4"/>
  </g>
</svg>
