<svg id="volcano" xmlns="http://www.w3.org/2000/svg" width="251.398" height="270.647" viewBox="0 0 251.398 270.647">
  <path id="Path_30" data-name="Path 30" d="M311.878,242.164a11.02,11.02,0,0,1,13.431,1.744,4.869,4.869,0,0,0,3.488,1.473,4.94,4.94,0,0,0,3.511-8.416,20.928,20.928,0,0,0-34.675,21.517,4.957,4.957,0,0,0,4.676,3.34,4.784,4.784,0,0,0,1.607-.271,4.951,4.951,0,0,0,3.1-6.331,11.057,11.057,0,0,1,4.858-13.056Z" transform="translate(-216.425 -178.829)" fill="#0874a4"/>
  <path id="Path_31" data-name="Path 31" d="M222.1,240.565h.749a18.273,18.273,0,0,0,17.439,12.977h15.854a8.741,8.741,0,0,1,8.72,8.732v2.8a5.22,5.22,0,0,0,10.44,0s0-5.152-.137-5.152l0,0A19.139,19.139,0,0,0,256.2,243.1H240.345a7.758,7.758,0,0,1-7.757-7.759,5.242,5.242,0,0,0-5.221-5.23H222.1a15.311,15.311,0,1,1,0-30.577h9.525a5.22,5.22,0,0,0,5.219-5.219v-3.172a17.5,17.5,0,0,1,17.531-17.506,5.22,5.22,0,0,0,5.221-5.221v-1.132a16.635,16.635,0,0,1,33.258,0v1.132a5.224,5.224,0,0,0,5.176,5.221h10.191a11.584,11.584,0,0,1,11.563,11.572,5.22,5.22,0,0,0,5.232,5.221h9.059a26.949,26.949,0,0,1,26.928,26.93,5.242,5.242,0,0,0,5.232,5.23h8.256a7.967,7.967,0,1,1,0,15.935H331.461A19.25,19.25,0,0,0,312.279,257.7v7.5a5.221,5.221,0,0,0,10.1,1.87,16.617,16.617,0,0,0,.294-4.531c0-1.6.078-3.206.078-4.8a8.729,8.729,0,0,1,8.72-8.718H374.5a18.425,18.425,0,1,0,0-36.838h-3.4a37.5,37.5,0,0,0-37.018-32.149h-4.461a22.216,22.216,0,0,0-21.393-16.8h-5.311a27.077,27.077,0,0,0-53.587.442,27.939,27.939,0,0,0-22.875,25.446H222.1a25.762,25.762,0,0,0,0,51.513Z" transform="translate(-173.978 -140.277)" fill="#0874a4"/>
  <path id="Path_32" data-name="Path 32" d="M370.866,275.076v42.954a5.232,5.232,0,1,0,10.453,0V275.076a5.232,5.232,0,0,0-10.453,0Z" transform="translate(-248.113 -195.591)" fill="#0874a4"/>
  <path id="Path_33" data-name="Path 33" d="M403.387,484.485H391.156a183.255,183.255,0,0,1-76.889-91.162c-1.359-3.4-2.6-6.907-3.737-10.644v0a175.356,175.356,0,0,1-5.21-22.987,4.892,4.892,0,0,0-4.869-4.3H274.292V341a4.982,4.982,0,1,0-9.965,0v14.381H252.89a5.082,5.082,0,0,0-4.869,4.3,173.53,173.53,0,0,1-4.869,23.1,96.9,96.9,0,0,1-2.946,10.191,187.859,187.859,0,0,1-64.66,91.5h-13.59a5.026,5.026,0,0,0-4.983,4.981,4.925,4.925,0,0,0,4.983,4.869H403.39a4.922,4.922,0,0,0,4.981-4.869,5.024,5.024,0,0,0-4.981-4.981ZM257.373,365.6h38.672a183.076,183.076,0,0,0,4.847,19.952,10.82,10.82,0,0,0-1.686,1.134,8.847,8.847,0,0,1-10.872,0,19.017,19.017,0,0,0-23.1,0,8.843,8.843,0,0,1-10.87,0c-.509-.3-.939-.679-1.439-.928,1.733-6.512,3.284-13.206,4.45-20.158ZM194.251,484.215a199.287,199.287,0,0,0,55.669-88.8,18.272,18.272,0,0,0,9.875,2.9,18.528,18.528,0,0,0,11.552-3.963,8.843,8.843,0,0,1,10.87,0,19.022,19.022,0,0,0,11.552,3.963,18.614,18.614,0,0,0,10.283-3.159,191.829,191.829,0,0,0,65.354,89.067Z" transform="translate(-156.973 -223.686)" fill="#0874a4"/>
  <path id="Path_34" data-name="Path 34" d="M365.175,502.7h-3.488l3.511-7.043a4.734,4.734,0,0,0-5.741-6.613,4.675,4.675,0,0,0-2.742,2.39L349.8,505.323a4.767,4.767,0,0,0,4.246,6.851h3.477l-3.511,7.055a4.756,4.756,0,0,0,2.141,6.364,4.963,4.963,0,0,0,2.105.489,4.718,4.718,0,0,0,4.248-2.639l7.089-14.28a4.779,4.779,0,0,0-4.416-6.467Z" transform="translate(-238.934 -288.783)" fill="#0874a4"/>
  <path id="Path_35" data-name="Path 35" d="M343.7,466.12a31.707,31.707,0,1,0,22.422,9.285A31.71,31.71,0,0,0,343.7,466.12Zm0,52.782a21.154,21.154,0,1,1,14.932-6.191A21.117,21.117,0,0,1,343.7,518.9Z" transform="translate(-223.028 -279.123)" fill="#0874a4"/>
</svg>
