<svg id="download" xmlns="http://www.w3.org/2000/svg" width="271.713" height="270.647" viewBox="0 0 271.713 270.647">
  <path id="Path_1" data-name="Path 1" d="M383.2,416.574H373.03l-5.759-107.393a3.332,3.332,0,0,0-3.421-3.074,3.276,3.276,0,0,0-3.074,3.421l5.759,107.049H343.583l8.1-150.483a16.638,16.638,0,0,0,6.756,0l1.6,29.489a3.238,3.238,0,0,0,3.249,3.074h.172a3.276,3.276,0,0,0,3.074-3.421l-1.558-28.754,2.643,4.849a3.038,3.038,0,0,0,1.6,1.429l62.052,25.42a6.193,6.193,0,0,0,2.426.476,6.2,6.2,0,0,0,3.81-11.042l-52.224-42a3.176,3.176,0,0,0-2.034-.736H370.475a16.2,16.2,0,0,0-5.8-7.926l5.759-9.743a3.338,3.338,0,0,0,.434-2.122l-9.661-66.343a6.212,6.212,0,0,0-12.3,0l-9.658,66.343a3.306,3.306,0,0,0,.434,2.122l5.759,9.743a16.179,16.179,0,0,0-5.8,7.926H326.866a3.171,3.171,0,0,0-2.034.736l-52.269,42a6.224,6.224,0,0,0,3.854,11.042,6.7,6.7,0,0,0,2.426-.476L340.9,272.76a3.048,3.048,0,0,0,1.6-1.429l2.685-4.849-8.1,150.091h-10.22a3.249,3.249,0,1,0,0,6.5H383.2a3.249,3.249,0,0,0,0-6.5ZM350.078,258.56a11.316,11.316,0,0,1-1.992-1.473L348,257a9.831,9.831,0,0,1-2.815-6.886,9.98,9.98,0,0,1,.217-1.95,9.856,9.856,0,0,1,19.312,0,9.976,9.976,0,0,1,.217,1.95A9.83,9.83,0,0,1,362.115,257l-.087.087a9.852,9.852,0,0,1-6.971,2.9,10.287,10.287,0,0,1-4.979-1.429Zm81.8,32.867-59.11-24.206-4.288-7.794a15.869,15.869,0,0,0,2.772-7.968h10.87Zm-86-66.56,9.18-63.223,9.18,63.223-5.542,9.31a15.826,15.826,0,0,0-7.36,0Zm-8.532,42.308-59.153,24.251,49.8-40.057h10.87a15.867,15.867,0,0,0,2.772,7.968Z" transform="translate(-198.214 -152.423)" fill="#0874a4"/>
  <path id="Path_2" data-name="Path 2" d="M227.943,388.63a3.176,3.176,0,0,0-2.034-.736h-7.4a11.615,11.615,0,0,0-3.119-4.243l3.2-5.457a3.338,3.338,0,0,0,.434-2.122L212.787,333.2a5.165,5.165,0,0,0-10.222,0l-6.235,42.872a3.305,3.305,0,0,0,.434,2.122l3.2,5.457a11.643,11.643,0,0,0-3.119,4.243h-7.4a3.171,3.171,0,0,0-2.034.736l-33.69,27.15a5.164,5.164,0,0,0,3.206,9.18,5.441,5.441,0,0,0,1.992-.389l40.057-16.412a2.694,2.694,0,0,0,.865-.563l-1.169,18.794a3.232,3.232,0,0,0,6.452.389l1.386-22.69a3.334,3.334,0,0,0,.651,0c.172,0,.3.042.476.042s.347-.042.476-.042a3.334,3.334,0,0,0,.651,0l5.024,82.016H201.445l3.032-49.713a3.232,3.232,0,1,0-6.452-.389l-3.074,50.1h-5.542a3.249,3.249,0,1,0,0,6.5h36.418a3.249,3.249,0,0,0,0-6.5l-5.417,0L215.6,407.639a3.528,3.528,0,0,0,.865.519l40.1,16.412a5.277,5.277,0,0,0,1.992.389,5.164,5.164,0,0,0,3.206-9.18Zm-18.534,8.661a5.351,5.351,0,0,1-1.688.346,5.286,5.286,0,0,1-1.688-.346l-.651-.259a5.168,5.168,0,1,1,7.49-4.59,5.123,5.123,0,0,1-2.9,4.59,1.377,1.377,0,0,1-.561.259Zm-6.452-21.351,4.72-32.608,4.72,32.608-2.944,4.979a11.678,11.678,0,0,0-1.775-.172,11.981,11.981,0,0,0-1.775.172Zm-38.021,39.147,25.68-20.656H196.2a11.571,11.571,0,0,0,1.516,4.026l-2.251,4.114Zm55.039-12.513-2.251-4.114a11.588,11.588,0,0,0,1.516-4.026h5.587l25.68,20.656Z" transform="translate(-151.257 -221.956)" fill="#0874a4"/>
  <path id="Path_3" data-name="Path 3" d="M240.011,230.177a24.381,24.381,0,1,0-21.738,13.338,24.177,24.177,0,0,0,14.2-4.59,3.257,3.257,0,0,0-3.812-5.283,17.872,17.872,0,1,1,7.447-14.505,17.458,17.458,0,0,1-1.95,8.1,3.248,3.248,0,0,0,1.429,4.373,3.293,3.293,0,0,0,4.42-1.431Z" transform="translate(-167.954 -168.815)" fill="#0874a4"/>
  <path id="Path_4" data-name="Path 4" d="M232.255,172.036a3.2,3.2,0,0,0,3.2-3.2V154.976a3.2,3.2,0,0,0-6.407,0v13.857A3.193,3.193,0,0,0,232.255,172.036Z" transform="translate(-181.894 -151.772)" fill="#0874a4"/>
  <path id="Path_5" data-name="Path 5" d="M206.15,178.5a3.183,3.183,0,0,0,2.987,1.992,3.071,3.071,0,0,0,1.212-.259,3.2,3.2,0,0,0,1.733-4.2l-3.032-7.275a3.213,3.213,0,1,0-5.934,2.468Z" transform="translate(-171.51 -157.72)" fill="#0874a4"/>
  <path id="Path_6" data-name="Path 6" d="M167.9,209.845l7.317,3.032a3.072,3.072,0,0,0,1.212.259,3.222,3.222,0,0,0,1.254-6.193l-7.317-3.032a3.213,3.213,0,1,0-2.466,5.934Z" transform="translate(-156.858 -172.345)" fill="#0874a4"/>
  <path id="Path_7" data-name="Path 7" d="M179.348,252.855a3.2,3.2,0,0,0-4.2-1.733l-7.317,3.032a3.222,3.222,0,0,0,1.212,6.193,3.072,3.072,0,0,0,1.212-.259l7.317-3.032a3.184,3.184,0,0,0,1.777-4.2Z" transform="translate(-156.832 -191.064)" fill="#0874a4"/>
  <path id="Path_8" data-name="Path 8" d="M206.012,282.764l-3.032,7.317a3.2,3.2,0,0,0,1.733,4.2,4.174,4.174,0,0,0,1.254.217,3.127,3.127,0,0,0,2.944-1.992l3.032-7.317a3.2,3.2,0,0,0-1.733-4.2,3.255,3.255,0,0,0-4.2,1.775Z" transform="translate(-171.456 -202.916)" fill="#0874a4"/>
  <path id="Path_9" data-name="Path 9" d="M251.925,281.059a3.2,3.2,0,0,0-1.733,4.2l3.032,7.317a3.183,3.183,0,0,0,2.987,1.992,3.071,3.071,0,0,0,1.212-.259,3.2,3.2,0,0,0,1.733-4.2l-3.032-7.317A3.253,3.253,0,0,0,251.925,281.059Z" transform="translate(-190.176 -202.943)" fill="#0874a4"/>
  <path id="Path_10" data-name="Path 10" d="M290.352,260.423a3.127,3.127,0,0,0,2.944-1.992,3.2,3.2,0,0,0-1.733-4.2l-7.317-3.032a3.213,3.213,0,1,0-2.468,5.934l7.317,3.032a2.76,2.76,0,0,0,1.257.259Z" transform="translate(-202.013 -191.094)" fill="#0874a4"/>
  <path id="Path_11" data-name="Path 11" d="M280.184,211.282a3.183,3.183,0,0,0,2.987,1.992,3.072,3.072,0,0,0,1.212-.259l7.317-3.032a3.213,3.213,0,0,0-2.468-5.934l-7.317,3.032A3.186,3.186,0,0,0,280.184,211.282Z" transform="translate(-202.067 -172.4)" fill="#0874a4"/>
  <path id="Path_12" data-name="Path 12" d="M252.078,180.278a3.286,3.286,0,0,0,1.257.259,3.127,3.127,0,0,0,2.944-1.992l3.032-7.317a3.213,3.213,0,0,0-5.934-2.468l-3.032,7.317a3.222,3.222,0,0,0,1.733,4.2Z" transform="translate(-190.244 -157.72)" fill="#0874a4"/>
  <path id="Path_13" data-name="Path 13" d="M184.511,189.874a3.167,3.167,0,0,0,2.251.91,3.05,3.05,0,0,0,2.251-.952,3.214,3.214,0,0,0,0-4.547l-9.788-9.744a3.216,3.216,0,1,0-4.548,4.548Z" transform="translate(-159.961 -160.822)" fill="#0874a4"/>
  <path id="Path_14" data-name="Path 14" d="M154.115,236.18h13.857a3.2,3.2,0,0,0,0-6.408H154.115a3.2,3.2,0,0,0,0,6.408Z" transform="translate(-150.911 -182.699)" fill="#0874a4"/>
  <path id="Path_15" data-name="Path 15" d="M176.912,284.978a3.05,3.05,0,0,0,2.251-.952l9.786-9.786a3.216,3.216,0,0,0-4.548-4.547l-9.786,9.786a3.226,3.226,0,0,0,2.3,5.5Z" transform="translate(-159.937 -198.154)" fill="#0874a4"/>
  <path id="Path_16" data-name="Path 16" d="M228.91,288.225v13.857a3.2,3.2,0,1,0,6.407,0V288.225a3.2,3.2,0,1,0-6.407,0Z" transform="translate(-181.838 -204.605)" fill="#0874a4"/>
  <path id="Path_17" data-name="Path 17" d="M278.582,284.164a3.22,3.22,0,0,0,2.251.952,3.05,3.05,0,0,0,2.251-.952,3.214,3.214,0,0,0,0-4.547l-9.786-9.786a3.216,3.216,0,0,0-4.547,4.547Z" transform="translate(-197.261 -198.208)" fill="#0874a4"/>
  <path id="Path_18" data-name="Path 18" d="M284.08,233.115a3.2,3.2,0,0,0,3.2,3.2h13.857a3.2,3.2,0,1,0,0-6.407H287.284A3.2,3.2,0,0,0,284.08,233.115Z" transform="translate(-203.713 -182.754)" fill="#0874a4"/>
  <path id="Path_19" data-name="Path 19" d="M271.192,190.908a3.05,3.05,0,0,0,2.251-.952l9.786-9.786a3.216,3.216,0,0,0-4.548-4.548l-9.786,9.786a3.226,3.226,0,0,0,2.3,5.5Z" transform="translate(-197.319 -160.855)" fill="#0874a4"/>
  <path id="Path_20" data-name="Path 20" d="M540.968,517.773l-8.532-58.806a7.5,7.5,0,0,0-7.4-6.41H465.574a7.538,7.538,0,0,0-7.4,6.41l-8.532,58.806a7.631,7.631,0,0,0,1.733,5.976,7.469,7.469,0,0,0,5.672,2.6h25.984v8.833H472.762a3.249,3.249,0,0,0,0,6.5h44.994a3.249,3.249,0,0,0,0-6.5h-10.22v-8.833h12.3a3.249,3.249,0,1,0,0-6.5l-1.646,0v-9.83H533.3l1.256,8.7a1.12,1.12,0,0,1-.217.78,1.014,1.014,0,0,1-.78.347h-3.68a3.249,3.249,0,1,0,0,6.5h3.637a7.542,7.542,0,0,0,7.447-8.576Zm-62.052,2.079v-9.83h13.121v9.83Zm0-16.37V492.657h13.121v10.826Zm13.121-34.6H478.916V459.01h13.121Zm6.495-9.873H511.7v9.873H498.532Zm-6.495,16.37v10.826H478.916V475.38Zm-19.616,10.783H460.728l1.558-10.826h10.09v10.826Zm-12.6,6.495h12.6v10.826H458.257Zm38.713,0H511.7v10.826H498.531Zm0-6.495V475.337H511.7v10.826Zm19.661-10.783h10.09l1.558,10.826H518.192Zm7.794-15.5,1.3,9.008-9.092,0V459.01h6.841a.98.98,0,0,1,.952.868Zm-60.41-.868h6.841v9.873h-9.18l1.3-9.008a1.072,1.072,0,0,1,1.04-.865Zm-9.31,60.495a.861.861,0,0,1-.217-.823l1.256-8.7h15.113v9.83H457.046a.942.942,0,0,1-.78-.3Zm33.258,15.677v-8.833h11.518v8.833Zm22.171-15.33H498.532v-9.83H511.7Zm6.495-16.37V492.656h12.558l1.558,10.826Z" transform="translate(-269.327 -271.033)" fill="#0874a4"/>
  <path id="Path_21" data-name="Path 21" d="M482.436,181.664h50.8a3.249,3.249,0,1,0,0-6.5l-50.8,0a7.664,7.664,0,1,1,0-15.328,3.249,3.249,0,0,0,0-6.5,14.16,14.16,0,1,0,0,28.32Z" transform="translate(-276.746 -152.395)" fill="#0874a4"/>
  <path id="Path_22" data-name="Path 22" d="M495.19,230.366a14.158,14.158,0,0,0,14.116,14.161,3.249,3.249,0,1,0,0-6.5,7.664,7.664,0,0,1,0-15.328H551.44a3.249,3.249,0,1,0,0-6.5H509.306a14.157,14.157,0,0,0-14.116,14.161Z" transform="translate(-287.418 -177.32)" fill="#0874a4"/>
</svg>
