<svg xmlns="http://www.w3.org/2000/svg" width="122.857" height="101" viewBox="0 0 122.857 101">
  <g id="benefits-icon" transform="translate(-0.017)">
    <path id="Path_38" data-name="Path 38" d="M61.44,0l5.88,4.77,7.48-1.2,2.69,7.08,7.08,2.69-1.2,7.48,4.77,5.88-4.77,5.88,1.2,7.48-7.08,2.69L74.8,49.83l-7.48-1.2L61.44,53.4l-5.88-4.77-7.48,1.2-2.69-7.08-7.08-2.69,1.2-7.48L34.74,26.7l4.77-5.88-1.2-7.48,7.08-2.69,2.69-7.08,7.48,1.2L61.44,0Zm4.97,84.78H88.32c1.76-1.75,3.69-3.57,5.64-5.42a179.184,179.184,0,0,0,12.81-13.03c5.04-5.81,5.58-7.82,7.11-13.51.29-1.07.61-2.27,1.03-3.76l2.62-9.21.03-.1c1.4-4.1,1.51-6.81.93-8.37a1.877,1.877,0,0,0-.68-.97,1.19,1.19,0,0,0-.78-.16,3.578,3.578,0,0,0-2.15,1.27L107.1,50.05a2.016,2.016,0,0,1-.28.47,10.252,10.252,0,0,1-1.88,2.41L91.14,68.32a2.033,2.033,0,0,1-3.03-2.71c1.87-2.08,16.37-16.31,15.63-19.5-.92-3.93-10.8,6.16-11.98,7.2l-.03.03a45.33,45.33,0,0,1-12.82,9.15c-.95.5-1.99,1.04-3.28,1.74a12.515,12.515,0,0,0-1.5.99c-.52.4-1.02.81-1.49,1.21a13.865,13.865,0,0,0-4.38,5.47,30.019,30.019,0,0,0-1.39,7.31c-.15,1.26-.26,2.52-.35,3.77-.05.61-.08,1.21-.11,1.8Zm-9.94,0H34.55c-1.76-1.75-3.69-3.57-5.65-5.42A179.185,179.185,0,0,1,16.09,66.33c-5.04-5.81-5.58-7.82-7.11-13.51-.29-1.07-.61-2.27-1.03-3.76L5.33,39.85l-.03-.1c-1.4-4.1-1.51-6.81-.93-8.37a1.877,1.877,0,0,1,.68-.97,1.19,1.19,0,0,1,.78-.16,3.578,3.578,0,0,1,2.15,1.27l7.78,18.53a2.016,2.016,0,0,0,.28.47,10.252,10.252,0,0,0,1.88,2.41l13.8,15.39a2.033,2.033,0,1,0,3.03-2.71C32.9,63.52,18.4,49.29,19.14,46.1c.92-3.93,10.8,6.16,11.98,7.2l.03.03a45.33,45.33,0,0,0,12.82,9.15c.95.5,1.99,1.04,3.28,1.74a12.515,12.515,0,0,1,1.5.99c.52.4,1.02.81,1.49,1.21a13.865,13.865,0,0,1,4.38,5.47,30.019,30.019,0,0,1,1.39,7.31c.15,1.26.26,2.52.35,3.77.05.62.08,1.22.11,1.81Zm-27.02.7a2.052,2.052,0,0,0-.5,1.34V98.96A2.042,2.042,0,0,0,30.99,101H58.57a2.042,2.042,0,0,0,2.04-2.04V86.71c0-1.3-.08-2.7-.17-4q-.135-2-.36-3.96a32.236,32.236,0,0,0-1.66-8.35,17.689,17.689,0,0,0-5.53-7.09c-.54-.46-1.09-.92-1.67-1.35a17.01,17.01,0,0,0-2.01-1.31c-1.2-.65-2.32-1.24-3.34-1.78a42.3,42.3,0,0,1-11.91-8.52,1.266,1.266,0,0,0-.13-.11l-5.22-4.61c-2.64-3.09-7.87-6.77-11.68-3.43C14.9,37.37,12.9,26.84,6.26,26.19a5.216,5.216,0,0,0-3.4.8A5.853,5.853,0,0,0,.59,29.95c-.88,2.35-.86,6,.86,11.05l2.6,9.15c.38,1.32.71,2.59,1.02,3.71,1.7,6.35,2.3,8.6,7.97,15.12A185.123,185.123,0,0,0,26.14,82.3c1.09,1.06,2.19,2.11,3.31,3.18Zm3.9,3.38a1.936,1.936,0,0,0,.83,0H56.52v8.06H33.03V88.86Zm60.08-3.38a2.052,2.052,0,0,1,.5,1.34V98.96A2.036,2.036,0,0,1,91.89,101H64.32a2.042,2.042,0,0,1-2.04-2.04V86.71a1.62,1.62,0,0,1,.01-.22c.03-1.31.08-2.58.16-3.78q.135-2,.36-3.96a32.236,32.236,0,0,1,1.66-8.35A17.689,17.689,0,0,1,70,63.31c.54-.46,1.09-.92,1.67-1.35a17.009,17.009,0,0,1,2.01-1.31c1.2-.65,2.32-1.24,3.34-1.78a42.3,42.3,0,0,0,11.91-8.52,1.266,1.266,0,0,1,.13-.11l5.22-4.61c2.64-3.09,7.87-6.77,11.68-3.43.99-2.37,4.41-11.65,5.59-13.07a7.854,7.854,0,0,1,5.08-2.95,5.216,5.216,0,0,1,3.4.8,5.853,5.853,0,0,1,2.27,2.96c.88,2.35.86,6-.86,11.05l-2.6,9.15c-.38,1.32-.71,2.59-1.02,3.71-1.7,6.35-2.3,8.6-7.97,15.12a183.051,183.051,0,0,1-13.1,13.32c-1.1,1.07-2.2,2.12-3.32,3.19Zm-3.9,3.38a1.936,1.936,0,0,1-.83,0H66.36v8.06H89.85V88.86ZM61.44,17.18l2.75,6.72,7.25.54L65.9,29.13l1.73,7.06-6.18-3.83-6.18,3.83L57,29.14l-5.56-4.69,7.25-.54,2.75-6.72h0Zm0-5.57A15.08,15.08,0,1,1,46.36,26.69,15.084,15.084,0,0,1,61.44,11.61Z" fill="#0874a4" fill-rule="evenodd"/>
  </g>
</svg>
