<svg xmlns="http://www.w3.org/2000/svg" width="113.5" height="122.939" viewBox="0 0 113.5 122.939">
  <path id="climate-icon" d="M68.24,66.84l-.6-.42-5.78-1,.6.93a14.61,14.61,0,0,1,2.31,4.6c.51,2.46-.4,4.52-4.5,6a2.71,2.71,0,0,1,.35.24c1.6,1.22,2,3-1.5,7.56-.88,1.15-1.63,2.16-2.27,3.05-.49.69-1,1.36-1.39,2l.78,5.7a3,3,0,0,1-.57,2.23A5.72,5.72,0,0,1,54,99.2a10.35,10.35,0,0,0-1.23,1l-.36.37.36,1.63a1.64,1.64,0,0,1-1,1.86h0l-.61.26a7.18,7.18,0,0,1-.51,1.38,9.12,9.12,0,0,1-1.49,2.12A7.13,7.13,0,0,1,47,109.44a6.26,6.26,0,0,1-2.66.59h-2.9a1.65,1.65,0,0,1-1.65-1.65,11.26,11.26,0,0,0-.27-2.37,18,18,0,0,0-.85-2.78,27.249,27.249,0,0,1-1-3,10.64,10.64,0,0,1-.36-2.51A7.89,7.89,0,0,1,37.54,96a4.37,4.37,0,0,1,.62-1.52,1.16,1.16,0,0,0,.1-.38,7.409,7.409,0,0,0,.09-1.31,4.32,4.32,0,0,0-.22-1.34,8.42,8.42,0,0,0-.74-1.66c-.42-.73-.73-1.32-.94-1.77A3.82,3.82,0,0,1,36,86.48c0-2.69-.92-3.28-2.2-3.28a18.5,18.5,0,0,0-2.54.24,26.182,26.182,0,0,1-3.43.31,3.79,3.79,0,0,1-2.56-1.18,12.24,12.24,0,0,1-1.91-2.51c-.6-1-1.05-1.78-1.36-2.38a4.85,4.85,0,0,1-.64-1.89V74.53c0-4.58-.08-8.9,4.33-12.09a16.39,16.39,0,0,1,5.46-5.36,15,15,0,0,1,7.45-1.51,1.65,1.65,0,0,1,1.65,1.65v2.34l2,.86v-.13a1.65,1.65,0,0,1,2-1.27h0a11.57,11.57,0,0,1,1.68.48,7.11,7.11,0,0,1,1.41.67,2.93,2.93,0,0,0,1,.34,4.45,4.45,0,0,0,1.5,0,1,1,0,0,0,.47-.17h0V60.3c.05-.25.08-.5.11-.75l-2,.18a1.64,1.64,0,0,1-1.62-.94h0c-.65-1.36-2-2-3.72-2.93a24.53,24.53,0,0,1-6.35-4.26c-7.87,2.79-10.39,3.17-11,1.42-.37-1,.16-1.86.88-3a7.71,7.71,0,0,0,1.57-3.76,1.66,1.66,0,0,1,1.1-1.55l6.62-3h0c-.71-.13-1.6-.28-2.33-3.85a1.64,1.64,0,0,1,.84-1.78h0A20.789,20.789,0,0,0,36.24,35c.71-.48,1.56-1.09,2.54-1.84h.06a40,40,0,0,0-9.71,2.78h0a44.12,44.12,0,0,0-7.25,3.92,40.76,40.76,0,0,0-6.23,5.13h0a41.29,41.29,0,0,0-5.12,6.23A45.351,45.351,0,0,0,6.6,58.47v.08a40.431,40.431,0,0,0-2.44,7.88,44.62,44.62,0,0,0,0,17l.09.44,7.62,3.65a1.64,1.64,0,0,1,.94,1.42h0a13.42,13.42,0,0,1-1.1,5.44,13.36,13.36,0,0,0-1,4,1.63,1.63,0,0,1-.08.44,41.09,41.09,0,0,0,5,6.07h0a42,42,0,0,0,6.23,5.13,45.309,45.309,0,0,0,7.25,3.92h.08a41.1,41.1,0,0,0,7.88,2.43,44.57,44.57,0,0,0,17,0,42.414,42.414,0,0,0,4.37-1.13,22,22,0,0,0-.41,3.56c-1.09.31-2.2.57-3.31.8a47.53,47.53,0,0,1-18.31,0,44.09,44.09,0,0,1-8.53-2.64h-.09A47.69,47.69,0,0,1,20,112.67a44.58,44.58,0,0,1-6.72-5.54h0a44.7,44.7,0,0,1-5.53-6.73,48.409,48.409,0,0,1-4.22-7.77h0A43.36,43.36,0,0,1,.89,84a47.53,47.53,0,0,1,0-18.31,44.09,44.09,0,0,1,2.64-8.53v-.09A48.51,48.51,0,0,1,7.78,49.3a45.129,45.129,0,0,1,5.53-6.72h0A44.58,44.58,0,0,1,20,37a48.511,48.511,0,0,1,7.78-4.22h0a44.87,44.87,0,0,1,17.77-3.56,46.88,46.88,0,0,1,9.16.89,44.311,44.311,0,0,1,8.53,2.64h.09A48.41,48.41,0,0,1,71.14,37c.9.6,1.77,1.24,2.62,1.9a13,13,0,0,0-1.71,1.44,14,14,0,0,0-1,1.07c-.6-.46-1.21-.9-1.85-1.33a42.52,42.52,0,0,0-4.86-2.88h0a40.42,40.42,0,0,0-4.77-2c-6.12,1.41-7.89.56-9.86-.38a8.68,8.68,0,0,0-4.41-1H43.9a2.69,2.69,0,0,0-.89.37,17.45,17.45,0,0,0-2.27,1.52c-1,.74-1.87,1.39-2.69,2q-.72.48-1.32.84c.79.19,1.39.68,1.81,4.35h0a1.64,1.64,0,0,1-1,1.67l-6.23,2.85a11.83,11.83,0,0,1-2,4.45l-.05.06a28.88,28.88,0,0,1,7.21-3.71,1.65,1.65,0,0,1,1.85.38,20.93,20.93,0,0,0,6.21,4.36c1.91,1,3.49,1.78,4.62,3.43l2.66-.23a1.36,1.36,0,0,1,.29,0,1.65,1.65,0,0,1,1.65,1.65,12.242,12.242,0,0,1-.07,1.57c-.07.57-.11,1-.2,1.54a3.22,3.22,0,0,1-.47,1.21,3.86,3.86,0,0,1-2.61,1.63,7.43,7.43,0,0,1-2.7,0,6.35,6.35,0,0,1-2.25-.81,3.811,3.811,0,0,0-.41-.22l-.08.36h0a2,2,0,0,1-.1.32,1.64,1.64,0,0,1-2.16.85L38,62.2a1.65,1.65,0,0,1-1.11-1.56V58.92A10.06,10.06,0,0,0,32.69,60a13.62,13.62,0,0,0-4.44,4.52,1.79,1.79,0,0,1-.47.48c-3.22,2.21-3.19,5.76-3.15,9.52v1.29c0,.08.09.06.27.4.27.54.68,1.26,1.24,2.18A9,9,0,0,0,27.5,80.2l.3.27a23.222,23.222,0,0,0,3-.27,23.149,23.149,0,0,1,3-.28c3.2,0,5.5,1.19,5.5,6.58,0,.1,0,0,.13.14.19.38.46.9.83,1.55a11.57,11.57,0,0,1,1,2.31,7.72,7.72,0,0,1,.37,2.31,10.69,10.69,0,0,1-.15,1.9,4.11,4.11,0,0,1-.62,1.64,1,1,0,0,0-.11.35,4.65,4.65,0,0,0-.09,1,7.4,7.4,0,0,0,.26,1.72,21.44,21.44,0,0,0,.86,2.64,23.66,23.66,0,0,1,1,3.28c.1.48.18,1,.23,1.4h1.36a3,3,0,0,0,1.28-.27,3.54,3.54,0,0,0,1.19-.91,6,6,0,0,0,1-1.35,3.45,3.45,0,0,0,.36-1.19,1.66,1.66,0,0,1,1-1.4l.17-.07-.23-1h0a1.66,1.66,0,0,1,.22-1.24,8,8,0,0,1,1.26-1.5,11.4,11.4,0,0,1,1.67-1.31,2.57,2.57,0,0,0,.73-.63h0l-.85-6.15a1.63,1.63,0,0,1,.24-1.22c.47-.72,1.08-1.6,1.82-2.62s1.48-2,2.32-3.12c1.82-2.39,2.17-2.92,2.11-3a3.53,3.53,0,0,0-.67-.32A4.36,4.36,0,0,1,55,76.82a2,2,0,0,1-.08-.26,1.64,1.64,0,0,1,1.28-1.94c4.47-.94,5.57-1.93,5.34-3a12.55,12.55,0,0,0-1.85-3.48,25.84,25.84,0,0,1-2.36-4.22,1.69,1.69,0,0,1-.13-1,1.65,1.65,0,0,1,1.9-1.34l9.13,1.63v3.66ZM26.62,6.13c-1.46-1.45,1.84-3,3.36-1.5,4.4,4.36,2.28,7.89.25,11.27-1.54,2.56-3,5-.3,7.48.67.61.47,1.44-.43,1.88A2.77,2.77,0,0,1,26.67,25c-4-3.67-2.16-6.8-.19-10.06,1.64-2.75,3.35-5.6.14-8.78Zm17.16-4C42.33.64,45.63-.87,47.15.6c4.4,4.35,2.28,7.88.24,11.26-1.53,2.57-3,5-.29,7.48.67.61.47,1.44-.43,1.88a2.77,2.77,0,0,1-2.83-.29c-4-3.66-2.16-6.8-.2-10.06,1.65-2.74,3.36-5.6.14-8.77ZM61,6.13c-1.45-1.45,1.85-3,3.37-1.5,4.4,4.36,2.28,7.89.24,11.27-1.53,2.56-3,5-.29,7.48.67.61.47,1.44-.43,1.88A2.77,2.77,0,0,1,61,25c-4-3.67-2.17-6.8-.2-10.06,1.64-2.75,3.37-5.6.14-8.78ZM80.2,74.85H92.88V54a6.35,6.35,0,0,0-12.69,0V74.85ZM103.37,56a1.63,1.63,0,0,1,0-3.26h8.5a1.63,1.63,0,0,1,0,3.26Zm0,9.17a1.63,1.63,0,0,1,0-3.26h8.5a1.63,1.63,0,0,1,0,3.26Zm0,9.18a1.63,1.63,0,1,1,0-3.25h8.5a1.63,1.63,0,0,1,0,3.25Zm0,9.17a1.63,1.63,0,1,1,0-3.25h8.5a1.63,1.63,0,0,1,0,3.25ZM96.14,92A17,17,0,1,1,77,91.78V54a9.6,9.6,0,1,1,19.2,0V92Zm-89-.59c.36.82.75,1.65,1.18,2.46l.22-.63A12.86,12.86,0,0,0,9.45,90L6,88.3c.34,1,.74,2,1.18,3.07h0ZM53,95.89v-.06h0v.07Zm-24.17-44c.07.18.2.16.47,0Z" fill="#0874a4"/>
</svg>
