<svg xmlns="http://www.w3.org/2000/svg" width="497.002" height="511.562" viewBox="0 0 497.002 511.562">
  <path id="ideas-icon" d="M300.56,479.77a71.079,71.079,0,0,1-27.16,24.39c-18.88,9.69-41.39,10.11-60.11-.19a62.247,62.247,0,0,1-17.27-14.39l104.54-9.81Zm-.19-302.95a29.393,29.393,0,0,1,10.04,1.61,38.827,38.827,0,0,1,16.89,11.73,37.662,37.662,0,0,1,8.83,20.16,35.452,35.452,0,0,1-.58,11.23,42.814,42.814,0,0,1,8.59,10.35A34.245,34.245,0,0,1,349,250.25a32.974,32.974,0,0,1-6.68,18.8,45.916,45.916,0,0,1-11.22,10.56,41.682,41.682,0,0,1-7.19,25.75c-5.33,7.72-13.07,12.95-21.07,14.36a31.1,31.1,0,0,1-12.31,17.49c-7.45,5.34-17.19,7.84-26.06,5.41-6.62-1.82-12.65-6.23-16.75-14.05-4.99,8.58-11.9,13.11-19.13,14.61-8.59,1.78-17.48-.85-24.17-6.05a29.349,29.349,0,0,1-10.89-17.06,29.612,29.612,0,0,1-8.48-1.6,38.771,38.771,0,0,1-16.56-11.36,37.853,37.853,0,0,1-9.01-19.45,35.352,35.352,0,0,1,.44-12.3,41.867,41.867,0,0,1-7.8-9.26,34.723,34.723,0,0,1-5.34-18.67,33.357,33.357,0,0,1,6.76-19.59,46.681,46.681,0,0,1,10.84-10.42c-.07-1.3-.07-2.58-.03-3.84A41.242,41.242,0,0,1,173.49,189c5.37-6.58,12.6-10.92,20.03-11.95h.04a28.185,28.185,0,0,1,1.05-3.58,30.755,30.755,0,0,1,13.42-15.6,29.252,29.252,0,0,1,20.56-3.63c6.88,1.43,13.47,5.6,18.4,13.41,4.93-7.81,11.52-11.98,18.4-13.41a29.014,29.014,0,0,1,18.89,2.71,31.539,31.539,0,0,1,13.47,12.95,27.483,27.483,0,0,1,2.62,6.92Zm-46.02,4.16V309.73a6.2,6.2,0,0,1,1.17,2.74c1.85,11.23,6.73,16.65,12.22,18.16,5.06,1.38,10.89-.24,15.53-3.57,4.55-3.26,7.81-8.06,7.85-13.09.05-5.72-4.14-12.21-15.36-17.94a6.217,6.217,0,0,1,5.66-11.07c12.44,6.36,18.89,14.18,21.16,22.04a21.916,21.916,0,0,0,11.09-8.71,29.609,29.609,0,0,0,4.79-20.6,6.247,6.247,0,0,1,2.96-6.72,35.648,35.648,0,0,0,10.9-9.33,20.711,20.711,0,0,0,4.26-11.73,22.079,22.079,0,0,0-3.21-11.72,31.555,31.555,0,0,0-8.35-9.19,6.243,6.243,0,0,1-2.44-7.18,23.534,23.534,0,0,0,1.17-10.18,25.221,25.221,0,0,0-5.96-13.44,26.342,26.342,0,0,0-11.38-7.97,16.486,16.486,0,0,0-6.38-.93,30.307,30.307,0,0,1-6.08,11.03,6.21,6.21,0,0,1-9.51-7.99c4.85-5.75,4.88-11.8,2.34-16.54a19,19,0,0,0-8.11-7.73,16.607,16.607,0,0,0-10.74-1.65c-5.27,1.1-10.36,5.46-13.58,14.56Zm31.76,42.21a6.214,6.214,0,0,1,7.31-10.05,44.816,44.816,0,0,1,3.57,2.89,41.194,41.194,0,0,1,13.65,27.53,43.771,43.771,0,0,1-8.36,29.29,42.912,42.912,0,0,1-3.06,3.75,6.212,6.212,0,0,1-9.21-8.34c.71-.8,1.45-1.71,2.18-2.72a31.515,31.515,0,0,0,6.03-21.01,28.934,28.934,0,0,0-9.54-19.24A28.076,28.076,0,0,0,286.11,223.19Zm-44.25-35.71-.04-.05-.04-.06-.11-.18-.01-.02-.25-.47-.03-.05-.01-.01-.02-.06-.09-.21-.03-.05-.03-.06v-.02l-.02-.05-.08-.2-.01-.03-.01-.04-.03-.11-.01-.03-.02-.06-.01-.05-.01-.03-.02-.06-.01-.06-.01-.01-.02-.08-.01-.05c-3-12.13-8.83-17.69-14.88-18.95a16.837,16.837,0,0,0-11.78,2.21,18.1,18.1,0,0,0-7.95,9.12c-1.85,5.01-.76,11.17,5.49,16.95a6.213,6.213,0,1,1-8.44,9.12,31.9,31.9,0,0,1-9.35-14.23,20.53,20.53,0,0,0-10.89,7.28,28.557,28.557,0,0,0-6.35,17.14,32.552,32.552,0,0,0,.3,5.67,6.242,6.242,0,0,1-2.89,6.14,37.039,37.039,0,0,0-10.61,9.38,21.222,21.222,0,0,0-4.37,12.37,22.511,22.511,0,0,0,3.53,11.99,30.426,30.426,0,0,0,7.79,8.38,6.238,6.238,0,0,1,2.36,7.13,23.5,23.5,0,0,0-1.07,10.88,25.419,25.419,0,0,0,6.08,13.01,26.144,26.144,0,0,0,11.15,7.7,17.322,17.322,0,0,0,5.08.97c2.44-8.07,9.14-16.15,21.91-22.68a6.217,6.217,0,1,1,5.66,11.07c-11.81,6.03-16.25,12.99-16.24,19.05,0,4.71,2.69,9.15,6.62,12.2,3.99,3.11,9.15,4.71,13.97,3.71,6.06-1.26,11.9-6.84,14.89-19.01a6.2,6.2,0,0,1,.92-2.04V187.48Zm-46.25,29.84a6.223,6.223,0,0,1,8.73,8.87,28.9,28.9,0,0,0-8.67,19.54,31.657,31.657,0,0,0,7.11,21.14,6.224,6.224,0,1,1-9.7,7.8,44.076,44.076,0,0,1-9.84-29.44A41.251,41.251,0,0,1,195.61,217.32ZM146.99,357.89c-5.61-7.17-11.33-14.49-16.86-22.89a165.5,165.5,0,0,1-15.41-29.18,170.113,170.113,0,0,1-9.71-33.37,144.461,144.461,0,0,1-2-34.38v-.03a145.5,145.5,0,0,1,6.7-35.1,172.125,172.125,0,0,1,16-35.36l.57-.87A142.228,142.228,0,0,1,157,133.35a134.777,134.777,0,0,1,39.26-21.32l.76-.22a141.6,141.6,0,0,1,33.32-7.01,152.875,152.875,0,0,1,35.63,1.11,159.5,159.5,0,0,1,33.74,8.84,156.742,156.742,0,0,1,30.87,15.95,144.572,144.572,0,0,1,33.2,30.51,131.044,131.044,0,0,1,21.09,38.39h.04a151.2,151.2,0,0,1,6.22,24.53,140.482,140.482,0,0,1-2.16,56.66,156.365,156.365,0,0,1-10.43,29.2c-9.56,20.39-25.92,40.64-41.95,60.47-8.32,10.31-16.57,20.52-23.56,30.4a9.444,9.444,0,0,1-10.04,3.72c-21.99-1.69-95.08,8.83-122.11,11.34a9.436,9.436,0,0,1-9.95-6.89,183.418,183.418,0,0,0-10.59-28.79,118.478,118.478,0,0,0-13.35-22.35Zm-1.09-33.26c5.06,7.68,10.56,14.73,15.97,21.64a137.475,137.475,0,0,1,15.57,25.97,200.408,200.408,0,0,1,9.44,24.16l113.67-10.57c6.55-8.95,13.89-18.04,21.31-27.21,15.37-19.02,31.05-38.43,39.58-56.62a136.556,136.556,0,0,0,9.16-25.66,121.052,121.052,0,0,0,3.51-25.8,123.4,123.4,0,0,0-1.63-23.38,132.9,132.9,0,0,0-5.49-21.42l.04-.01a112.123,112.123,0,0,0-18.06-32.83,126.242,126.242,0,0,0-28.9-26.51,137.632,137.632,0,0,0-27.1-13.95,140.264,140.264,0,0,0-29.74-7.8,134.5,134.5,0,0,0-31.26-.96,122.7,122.7,0,0,0-28.82,5.98l-.74.28a115.961,115.961,0,0,0-33.79,18.3,123.572,123.572,0,0,0-26.49,28.74l-.13.23a152.893,152.893,0,0,0-14.3,31.43,124.061,124.061,0,0,0-4.03,60.55,150.51,150.51,0,0,0,8.6,29.6,146.3,146.3,0,0,0,13.63,25.84Zm157.09,79.94h0Zm.05-.01C303.07,404.56,303.12,404.55,303.04,404.56ZM257.49,15.44A16.752,16.752,0,0,1,275.31.04V0a8.822,8.822,0,0,1,1.15.15,16.689,16.689,0,0,1,14.42,17.68h.05a6.934,6.934,0,0,1-.09.85l-2.86,35.64h.04a9.243,9.243,0,0,1-.14,1.15,16.707,16.707,0,0,1-17.69,14.42v.04a11.083,11.083,0,0,1-1.14-.14A16.7,16.7,0,0,1,254.62,52.1h-.04a5.407,5.407,0,0,1,.09-.85l2.82-35.81ZM70,67.85a16.9,16.9,0,0,1-4.69-11.93A16.74,16.74,0,0,1,94.07,44.58l25.41,26.41a16.9,16.9,0,0,1,4.69,11.93,16.688,16.688,0,0,1-5.09,11.74,16.91,16.91,0,0,1-11.94,4.69,16.634,16.634,0,0,1-11.73-5.1ZM16.12,249.45A16.766,16.766,0,0,1,0,232.31a16.7,16.7,0,0,1,17.15-16.33l36.6.77a16.7,16.7,0,0,1,16.34,17.14l-.02.26h.04l-.07.6a16.683,16.683,0,0,1-17.1,15.48l-.25-.02-.01.05-.38-.02-36.18-.79ZM479.6,222.92l.55-.01a16.682,16.682,0,0,1,11.35,4.34,16.861,16.861,0,0,1,5.48,11.59l-.01.17c.05,0,.02.47.02.55a16.751,16.751,0,0,1-15.94,16.83l-36.57,1.84a16.734,16.734,0,0,1-1.59-33.43c12.22-.66,24.49-1.4,36.71-1.88ZM415.57,73.46a16.682,16.682,0,0,1,23.4-3.29l.04.04a16.55,16.55,0,0,1,6.5,11.01,16.859,16.859,0,0,1-3.21,12.39l-22,29.29a16.748,16.748,0,1,1-26.78-20.12l22.05-29.32ZM313.62,422.3l-.26,6.79.03,2.36a93.149,93.149,0,0,1-.57,13.36l-2.57,9.67-126.67,11.8-1.91-5.14-3.82-20.36.22-5.82L313.62,422.3Z" transform="translate(0.003)" fill="#0874a4"/>
</svg>
