<svg xmlns="http://www.w3.org/2000/svg" width="122.94" height="87.875" viewBox="0 0 122.94 87.875">
  <path id="income-growth-icon" d="M82.64,77.72c0,5-7.73,9-17.25,9s-17.25-4.05-17.25-9A5.28,5.28,0,0,1,48.93,75c2.19,3.68,8.73,6.34,16.46,6.34,5.1,0,13.59-1.51,16.46-6.34a5.31,5.31,0,0,1,.79,2.71Zm-40.36-.94c0,6.11-9.47,11.08-21.14,11.08S0,82.89,0,76.78a6.39,6.39,0,0,1,1-3.32c2.69,4.5,10.7,7.77,20.17,7.77,6.25,0,16.65-1.85,20.17-7.77a6.42,6.42,0,0,1,1,3.32Zm.12-11.54c0,6.11-9.47,11.08-21.14,11.08S.12,71.35.12,65.24a6.45,6.45,0,0,1,1-3.32c2.69,4.5,10.7,7.77,20.17,7.77,6.25,0,16.65-1.85,20.17-7.77a6.51,6.51,0,0,1,1,3.32ZM28.89,36.47l-.25,2.75-10.37-.9a9.36,9.36,0,0,1,1.78,3.73l-2.5-.22a8,8,0,0,0-1.12-2.45,5.09,5.09,0,0,0-2.16-1.93l.2-2.23,14.42,1.25Zm-7.31-4.31c9.44,0,17.05,3.1,17.05,6.82s-7.78,6.81-17.37,6.81S3.89,42.73,3.89,39s7.53-6.75,16.91-6.82Zm-.07-2.26c11.55,0,20.89,5,20.89,11.08S32.93,52.07,21.26,52.07.12,47.1.12,41,9.46,29.94,21,29.9ZM42.4,53.33c0,6.11-9.47,11.08-21.14,11.08S.12,59.44.12,53.33A6.26,6.26,0,0,1,1,50.15c2.61,4.56,10.68,7.9,20.25,7.9,6.26,0,16.8-1.88,20.24-7.9a6.36,6.36,0,0,1,.9,3.18ZM44,0a3.7,3.7,0,0,1,.84,7.35l-6.63.78L62.47,25.68,72.8,16.42A3.67,3.67,0,0,1,77.16,16l35.57,21.63a3.681,3.681,0,0,1-3.81,6.3L75.68,23.73,65.17,33.16a3.69,3.69,0,0,1-4.61.24L33.19,13.63,34.06,21a3.694,3.694,0,0,1-7.34.84L24.87,6.17V5.98A3.7,3.7,0,0,1,28.1,1.89Zm67.87,63.6-.2,2.24-8.47-.73a7.65,7.65,0,0,1,1.45,3l-2-.18a6.58,6.58,0,0,0-.92-2,4.18,4.18,0,0,0-1.76-1.57l.16-1.82,11.77,1Zm-5.29-3.5c7.39.19,13.24,2.6,13.24,5.55s-6.35,5.56-14.18,5.56-14.18-2.5-14.18-5.56,6-5.42,13.49-5.56h1.63Zm0-1.85c9.11.24,16.36,4.2,16.36,9,0,5-7.73,9-17.25,9s-17.25-4.06-17.25-9,7.3-8.81,16.46-9Zm15.63,16.9a5.22,5.22,0,0,1,.73,2.6c0,5-7.73,9-17.25,9s-17.25-4-17.25-9a5.09,5.09,0,0,1,.73-2.6c2.13,3.73,8.71,6.45,16.52,6.45,5.16,0,13.73-1.56,16.52-6.45ZM71.62,53.47l-.2,2.24L63,55a7.76,7.76,0,0,1,1.4,3l-2-.18a6.58,6.58,0,0,0-.92-2,4.12,4.12,0,0,0-1.75-1.58l.16-1.81,11.77,1ZM66.31,50c7.4.19,13.25,2.61,13.25,5.55s-6.35,5.56-14.17,5.56-14.18-2.5-14.18-5.56,5.95-5.4,13.42-5.55Zm-.07-1.84c9.12.23,16.4,4.19,16.4,9,0,5-7.73,9-17.25,9s-17.25-4-17.25-9,7.33-8.84,16.51-9h1.59Zm16.4,19.49c0,5-7.73,9-17.25,9s-17.25-4.06-17.25-9A5,5,0,0,1,48.87,65c2.12,3.72,8.71,6.45,16.52,6.45,5.11,0,13.72-1.54,16.52-6.45a5.24,5.24,0,0,1,.73,2.59Z" transform="translate(0 0.015)" fill="#0874a4" fill-rule="evenodd"/>
</svg>
