<svg xmlns="http://www.w3.org/2000/svg" width="119.11" height="122.88" viewBox="0 0 119.11 122.88">
  <path id="palm-tree-icon" d="M55.44,47.52C63.8,73,60,97.62,51.86,122.88H68.29c6.2-40.12.92-57.54-5.27-73.21a44.56,44.56,0,0,1,8.58,7.24l7.27-1.15-4.1,4.81q1.45,1.8,2.88,3.83l6.77-1.07-4.19,4.92c.73,1.14,1.45,2.33,2.16,3.56l6.21-1-4.07,4.78c.85,1.58,1.69,3.22,2.54,4.91l5.21-.82-3.59,4.21q2.82,6,5.58,13c13.67-25.47,5-44.21-27.48-56.37a43,43,0,0,1,11.38-1.94L81,34.72l.31,3.88a43.4,43.4,0,0,1,6.61.81l2.36-3.26L90.57,40a51.637,51.637,0,0,1,5.53,1.8l2.42-3.32.36,4.5a60.321,60.321,0,0,1,5.75,3l2.77-3.8.46,5.78a97.529,97.529,0,0,1,11.25,8.63c-8.74-33-33.67-40.92-55.95-22.11C66.19,10.87,56.47,5.2,43.43,0c1.64,2.49,3.16,5,4.51,7.57L51.49,8,49,9.67a52.929,52.929,0,0,1,2.76,6.91l3.17.34-2.57,1.77a36.76,36.76,0,0,1,1.15,11.59C33.4,11.82,16.61,18.65,1.16,34.92c3.07-.72,6.16-1.35,9.25-1.82l1.37-3.42,1.05,3.08A69.229,69.229,0,0,1,20,32.22l1.37-3.42,1.16,3.41a51,51,0,0,1,5.95.48L29.93,29l1.43,4.2a39,39,0,0,1,6,1.81l1.85-4.62,2.22,6.52a33.437,33.437,0,0,1,2.9,1.76C21.06,35.74,8,48.85,0,66.06A93,93,0,0,1,10.38,57.7l-.3-1.88L11.45,57a49.53,49.53,0,0,1,6.88-3.8l-.47-3,2.53,2.16a32.86,32.86,0,0,1,8.25-2,51.51,51.51,0,0,0-3,6.49l.16.13h-.22c-6,15.86-1.74,30.39,4.64,46.17h0c.54-6.33,1.22-12.39,2.21-18l-2.48-2L32.74,83q.72-3.75,1.66-7.25l-2.58-2.06L35,73.54c.63-2.07,1.33-4.06,2.11-6l-2.61-2.1,3.58-.11a43.62,43.62,0,0,1,3.38-6L38.54,57l4.78-.15A32.62,32.62,0,0,1,55.38,47.5Z" fill="#0874a4" fill-rule="evenodd"/>
</svg>
