<svg xmlns="http://www.w3.org/2000/svg" width="188.986" height="252.9" viewBox="0 0 188.986 252.9">
  <g id="solar-panel-home-9387" transform="translate(-31.957)">
    <path id="Path_43" data-name="Path 43" d="M218.132,141.975H34.768a2.814,2.814,0,0,1-2.507-4.089L61.233,81.029a2.811,2.811,0,0,1,2.5-1.534H189.161a2.808,2.808,0,0,1,2.5,1.534l28.971,56.858a2.811,2.811,0,0,1-2.5,4.089Zm-178.781-5.62H213.546L187.438,85.118H65.459Z" fill="#0874a4"/>
    <path id="Path_44" data-name="Path 44" d="M126.45,141.975a2.809,2.809,0,0,1-2.81-2.81V82.311a2.81,2.81,0,0,1,5.62,0v56.858A2.809,2.809,0,0,1,126.45,141.975Z" fill="#0874a4"/>
    <path id="Path_45" data-name="Path 45" d="M80.1,141.975a2.81,2.81,0,0,1-2.726-3.5L91.859,81.614A2.81,2.81,0,1,1,97.3,83L82.819,139.859A2.8,2.8,0,0,1,80.1,141.975Z" fill="#0874a4"/>
    <path id="Path_46" data-name="Path 46" d="M172.8,141.975a2.811,2.811,0,0,1-2.72-2.116L155.6,83a2.81,2.81,0,0,1,5.446-1.388l14.483,56.858a2.809,2.809,0,0,1-2.029,3.417A2.708,2.708,0,0,1,172.8,141.975Z" fill="#0874a4"/>
    <path id="Path_47" data-name="Path 47" d="M203.649,113.546H49.251a2.81,2.81,0,1,1,0-5.62h154.4a2.81,2.81,0,0,1,0,5.62Z" fill="#0874a4"/>
    <path id="Path_48" data-name="Path 48" d="M158.394,66.625H94.506a2.811,2.811,0,0,1-2.81-2.81,34.754,34.754,0,1,1,69.508,0A2.807,2.807,0,0,1,158.394,66.625Zm-60.943-5.62h58a29.135,29.135,0,0,0-58,0Z" fill="#0874a4"/>
    <path id="Path_49" data-name="Path 49" d="M187.455,66.625H172.41a2.81,2.81,0,0,1,0-5.62h15.045a2.81,2.81,0,0,1,0,5.62Z" fill="#0874a4"/>
    <path id="Path_50" data-name="Path 50" d="M80.492,66.625H65.445a2.81,2.81,0,0,1,0-5.62H80.492a2.81,2.81,0,1,1,0,5.62Z" fill="#0874a4"/>
    <path id="Path_51" data-name="Path 51" d="M126.45,20.665a2.811,2.811,0,0,1-2.81-2.81V2.81a2.81,2.81,0,1,1,5.62,0V17.855A2.809,2.809,0,0,1,126.45,20.665Z" fill="#0874a4"/>
    <path id="Path_52" data-name="Path 52" d="M158.948,34.127a2.81,2.81,0,0,1-1.987-4.8L167.6,18.692a2.81,2.81,0,1,1,3.973,3.973L160.934,33.3A2.8,2.8,0,0,1,158.948,34.127Z" fill="#0874a4"/>
    <path id="Path_53" data-name="Path 53" d="M93.952,34.127a2.8,2.8,0,0,1-1.987-.823L81.324,22.665A2.81,2.81,0,0,1,85.3,18.692L95.939,29.331a2.81,2.81,0,0,1-1.987,4.8Z" fill="#0874a4"/>
    <path id="Path_54" data-name="Path 54" d="M218.132,252.9H34.768a2.809,2.809,0,0,1-2.81-2.81V139.165a2.809,2.809,0,0,1,2.81-2.81H218.132a2.807,2.807,0,0,1,2.81,2.81V250.09A2.807,2.807,0,0,1,218.132,252.9ZM37.578,247.28H215.322v-105.3H37.578Z" fill="#0874a4"/>
    <path id="Path_55" data-name="Path 55" d="M147.452,252.9h-42a2.809,2.809,0,0,1-2.81-2.81V171.469a2.809,2.809,0,0,1,2.81-2.81h42a2.807,2.807,0,0,1,2.81,2.81V250.09A2.809,2.809,0,0,1,147.452,252.9Zm-39.194-5.62h36.384v-73H108.258Z" fill="#0874a4"/>
    <path id="Path_56" data-name="Path 56" d="M199.558,216.988h-34a2.807,2.807,0,0,1-2.81-2.81V171.469a2.807,2.807,0,0,1,2.81-2.81h34a2.807,2.807,0,0,1,2.81,2.81v42.709A2.811,2.811,0,0,1,199.558,216.988Zm-31.188-5.62h28.378V174.279H168.37Z" fill="#0874a4"/>
    <path id="Path_57" data-name="Path 57" d="M87.34,216.988h-34a2.809,2.809,0,0,1-2.81-2.81V171.469a2.809,2.809,0,0,1,2.81-2.81h34a2.809,2.809,0,0,1,2.81,2.81v42.709A2.811,2.811,0,0,1,87.34,216.988Zm-31.185-5.62H84.53V174.279H56.155Z" fill="#0874a4"/>
    <path id="Path_58" data-name="Path 58" d="M122.257,216.988h-3.9a2.81,2.81,0,0,1,0-5.62h3.9a2.81,2.81,0,0,1,0,5.62Z" fill="#0874a4"/>
    <path id="Path_59" data-name="Path 59" d="M70.343,216.988a2.809,2.809,0,0,1-2.81-2.81V171.469a2.81,2.81,0,0,1,5.62,0v42.709A2.811,2.811,0,0,1,70.343,216.988Z" fill="#0874a4"/>
    <path id="Path_60" data-name="Path 60" d="M87.34,195.632h-34a2.81,2.81,0,1,1,0-5.62h34a2.81,2.81,0,1,1,0,5.62Z" fill="#0874a4"/>
    <path id="Path_61" data-name="Path 61" d="M199.558,195.632h-34a2.81,2.81,0,1,1,0-5.62h34a2.81,2.81,0,1,1,0,5.62Z" fill="#0874a4"/>
    <path id="Path_62" data-name="Path 62" d="M182.557,216.988a2.807,2.807,0,0,1-2.81-2.81V171.469a2.81,2.81,0,0,1,5.62,0v42.709A2.809,2.809,0,0,1,182.557,216.988Z" fill="#0874a4"/>
  </g>
</svg>
