<svg xmlns="http://www.w3.org/2000/svg" width="122.88" height="35.026" viewBox="0 0 122.88 35.026">
  <g id="sports-car-icon" transform="translate(0 -0.003)">
    <path id="Path_63" data-name="Path 63" d="M99.42,13.57A10.73,10.73,0,1,1,88.69,24.3,10.725,10.725,0,0,1,99.42,13.57ZM79.05,5a21.869,21.869,0,0,0-1.42,4.23c-.82,2.57.39,3.11,3.19,2.06,2.06-1.23,4.12-2.47,6.18-3.7,1.05-.74,1.55-1.47,1.38-2.19-.34-1.42-3.08-2.16-5.33-2.6-2.86-.57-2.66-.69-4,2.2ZM23.86,19.31a4.99,4.99,0,1,1-4.99,4.99,4.991,4.991,0,0,1,4.99-4.99Zm75.56,0a4.99,4.99,0,1,1-4.99,4.99,4.991,4.991,0,0,1,4.99-4.99ZM46.14,12.5a32.434,32.434,0,0,1,9.67-6.76c8.1-4.08,13.06-3.58,21.66-3.58l-2.89,7.5a6.078,6.078,0,0,1-4.66,2.84ZM23.86,13.57A10.73,10.73,0,1,1,13.13,24.3,10.725,10.725,0,0,1,23.86,13.57ZM40.82,10.3A71.276,71.276,0,0,1,52.41,4.48c12.91-5.09,22.78-6,36.32-1.9a99.083,99.083,0,0,0,12.24,4.06c4.03.96,21.48,1.88,21.91,4.81l-4.31,5.15a9.291,9.291,0,0,1,3.32,5.64,8.012,8.012,0,0,1-1.33,4.04c-1.29,1.85-5.07,3.76-7.11,2.67a2.262,2.262,0,0,1-1.01-2.24c.06-23.9-28.79-21.18-26.62,2.82H35.48C44.8,5.49,5.04,5.4,12.1,28.7,9.62,31.38,3.77,27.34,0,18.75a27.87,27.87,0,0,1,3.42-2.89c-.06-.05.06.19-.15-.17s.51-1.87,1.99-2.74C13.02,8.4,31.73,8.52,40.82,10.3Z" fill="#0874a4" fill-rule="evenodd"/>
  </g>
</svg>
