<svg xmlns="http://www.w3.org/2000/svg" width="32" height="28" viewBox="0 0 32 28">
  <g id="bubble" transform="translate(0 -2)">
    <path id="Path_3" data-name="Path 3" d="M16,2C7.163,2,0,7.373,0,14c0,4.127,2.779,7.766,7.008,9.926,0,.027-.008.045-.008.074,0,1.793-1.339,3.723-1.928,4.736h0A.905.905,0,0,0,5.906,30c.094,0,.259-.025.255-.014,3.125-.512,6.069-3.383,6.753-4.215A21.18,21.18,0,0,0,16,26c8.835,0,16-5.373,16-12S24.836,2,16,2Zm0,22a19.422,19.422,0,0,1-2.8-.207,1.777,1.777,0,0,0-.29-.021,2,2,0,0,0-1.546.73,13.433,13.433,0,0,1-3.085,2.539A7.829,7.829,0,0,0,9,24.109c.006-.064.009-.129.009-.184a2,2,0,0,0-1.09-1.781C4.212,20.252,2,17.207,2,14,2,8.486,8.28,4,16,4S30,8.486,30,14,23.719,24,16,24Z" fill="#333" fill-rule="evenodd"/>
  </g>
</svg>
