<svg xmlns="http://www.w3.org/2000/svg" width="85.127" height="91.324" viewBox="0 0 85.127 91.324">
  <path id="hat" d="M90.54,33.012,49.476,5.636a1.5,1.5,0,0,0-1.664,0L6.748,33.012a1.5,1.5,0,0,0,0,2.5l6.237,4.158V61.579a1.5,1.5,0,0,0,.69,1.263L48.074,84.9a1.5,1.5,0,0,0,1.655-.024L67.676,72.627v8.538L60.99,94.537a1.5,1.5,0,0,0,1.341,2.171H76.02a1.5,1.5,0,0,0,1.341-2.171L70.675,81.165V70.58l11.377-7.762a1.5,1.5,0,0,0,.654-1.239V40.73l7.833-5.222a1.5,1.5,0,0,0,0-2.5Zm-25.781,60.7,4.417-8.834,4.417,8.834Zm-15.9-11.874L15.985,60.759V41.666L47.812,62.885a1.5,1.5,0,0,0,1.664,0l18.2-12.134V69ZM79.707,60.787l-9.031,6.162v-18.2l9.031-6.021Zm.979-22.315a1.488,1.488,0,0,0-.574.383L69.176,46.146l-19.7-13.134a1.5,1.5,0,0,0-1.664,2.5l18.66,12.44L48.644,59.834,10.284,34.26,48.644,8.687,87,34.26Z" transform="translate(-6.08 -5.384)"/>
</svg>
