<svg xmlns="http://www.w3.org/2000/svg" width="9.173" height="16.855" viewBox="0 0 9.173 16.855">
  <g id="question" transform="translate(-684.764 -521.727)">
    <path id="Path_7" data-name="Path 7" d="M687.65,531.612a2.375,2.375,0,0,1,.49-1.433,9.242,9.242,0,0,1,1.443-1.483,10.08,10.08,0,0,0,1.321-1.371,1.994,1.994,0,0,0,.367-1.2,1.953,1.953,0,0,0-1.982-2,2.073,2.073,0,0,0-1.419.543,3.56,3.56,0,0,0-.954,1.582l-2.152-.939a5.027,5.027,0,0,1,1.724-2.657,4.632,4.632,0,0,1,2.9-.926,4.96,4.96,0,0,1,2.287.531,4.153,4.153,0,0,1,1.651,1.5,3.98,3.98,0,0,1,.611,2.175,3.681,3.681,0,0,1-.538,1.965,8.759,8.759,0,0,1-1.638,1.865,13.793,13.793,0,0,0-1.359,1.322,1.536,1.536,0,0,0-.379,1,2.87,2.87,0,0,0,.1.667h-2.2a2.739,2.739,0,0,1-.273-1.141Zm1.468,6.969a1.855,1.855,0,0,1-1.357-.543,1.831,1.831,0,0,1-.551-1.359,1.875,1.875,0,0,1,.551-1.372,1.835,1.835,0,0,1,1.357-.556,1.868,1.868,0,0,1,1.908,1.928,1.833,1.833,0,0,1-.549,1.359,1.863,1.863,0,0,1-1.359.543Z"/>
  </g>
</svg>
