<svg xmlns="http://www.w3.org/2000/svg" width="118.307" height="122.879" viewBox="0 0 118.307 122.879">
  <g id="reload-sync-icon" transform="translate(0)">
    <path id="Path_42" data-name="Path 42" d="M10.03,35.673c2.245-10.5,7.2-19.176,14.246-25.362C32.5,3.086,43.5-.674,56.271.1a3.475,3.475,0,0,1-.408,6.939c-10.875-.66-20.153,2.47-27.015,8.5-6.483,5.693-10.883,14.028-12.512,24.258l.639.264,10.389-7.172a3.138,3.138,0,1,1,3.572,5.161L14.379,49.476a3.143,3.143,0,0,1-4.535-1.067h0L.39,31.146a3.141,3.141,0,1,1,5.5-3.029l4.136,7.556Zm89-12.565-.206.159L99.842,35.85a3.138,3.138,0,0,1-6.256.512L91.967,16.31a3.149,3.149,0,0,1,3.191-3.395v0l19.675.446a3.141,3.141,0,1,1-.13,6.281l-9.65-.219a55.581,55.581,0,0,1,9.036,57.264,3.471,3.471,0,0,1-6.421-2.638,48.628,48.628,0,0,0-8.637-50.939ZM72.658,109.86a55.673,55.673,0,0,1-37.829-6.551l-.01-.006,0,.006A55.718,55.718,0,0,1,18.547,89.058a3.472,3.472,0,1,1,5.5-4.245A48.556,48.556,0,0,0,38.3,97.3l0,.006a48.663,48.663,0,0,0,34.179,5.508l-.035-.264-11.4-5.411a3.139,3.139,0,1,1,2.685-5.674L81.9,100.085a3.14,3.14,0,0,1,1.494,4.18c-.046.1-.1.191-.15.282h0L73.017,121.364a3.142,3.142,0,0,1-5.376-3.252l5.017-8.252Z" fill="#0874a4"/>
  </g>
</svg>
