<svg xmlns="http://www.w3.org/2000/svg" width="20" height="20" viewBox="0 0 20 20">
  <path id="lang" d="M74.9,85.126h.83v-.02a10,10,0,0,0,0-19.959c-.13-.008-.26-.012-.392-.015-.073,0-.146-.006-.22-.006s-.147,0-.22.006c-.131,0-.262.007-.392.015a10,10,0,0,0,0,19.959v.02Zm2.025-1.411a13.989,13.989,0,0,0,3.182-4.482h2.765A8.8,8.8,0,0,1,76.929,83.715ZM83.9,75.126a8.733,8.733,0,0,1-.489,2.884h-2.87a9.571,9.571,0,0,0,.364-2.68,10.38,10.38,0,0,0-.509-3.087h3.015A8.737,8.737,0,0,1,83.9,75.126Zm-1.024-4.107H79.928a16.222,16.222,0,0,0-3.076-4.5A8.8,8.8,0,0,1,82.876,71.019Zm-7.141-3.881a15.858,15.858,0,0,1,2.83,3.881h-2.83Zm0,5.1h3.36a9.213,9.213,0,0,1,.587,3.1,8.372,8.372,0,0,1-.421,2.664H75.735Zm0,6.991h3.031a13.633,13.633,0,0,1-3.031,3.936ZM74.511,78.01H70.985a8.373,8.373,0,0,1-.421-2.664,9.215,9.215,0,0,1,.587-3.1h3.36V78.01Zm0-6.991h-2.83a15.862,15.862,0,0,1,2.83-3.881Zm-1.117-4.5a16.219,16.219,0,0,0-3.076,4.5H67.37A8.8,8.8,0,0,1,73.394,66.521Zm-7.048,8.6a8.739,8.739,0,0,1,.489-2.884H69.85a10.391,10.391,0,0,0-.509,3.087,9.575,9.575,0,0,0,.364,2.68h-2.87A8.736,8.736,0,0,1,66.346,75.126Zm1.024,4.107h2.765a13.989,13.989,0,0,0,3.183,4.482A8.8,8.8,0,0,1,67.37,79.233Zm4.111,0h3.031v3.936A13.634,13.634,0,0,1,71.481,79.233Z" transform="translate(-65.123 -65.126)" fill="#0073ab"/>
</svg>
