<svg xmlns="http://www.w3.org/2000/svg" width="121.013" height="54.393" viewBox="0 0 121.013 54.393">
  <g id="neu" transform="translate(0.03)">
    <path id="Path_1" data-name="Path 1" d="M99.414,329.67l.154-.042-.186.017a22.613,22.613,0,0,0-14.153-5.016h-.3A22.257,22.257,0,0,0,70.87,329.7c-1.986-.184-2.915-.345-2.915-.345a17.84,17.84,0,0,0,2.515.683A22.779,22.779,0,0,0,62.8,343.978c-2.389-.688-3.685-1.219-3.685-1.219a20.334,20.334,0,0,0,3.613,1.79,19.571,19.571,0,0,0-.117,2.106c0,12.355,8.291,19.864,16.979,22.322C71.349,364.942,64.528,358.3,64.528,346.8a13.755,13.755,0,0,1,.094-1.554c.976.333,2.081.665,3.327.993a28.638,28.638,0,0,0,.467,4.638c-2.046-.407-3.153-.745-3.153-.745a19.249,19.249,0,0,0,3.263,1.281,21.631,21.631,0,0,0,7.864,12.708c-2.873-3.5-5.214-6.729-6.208-12.231a43.2,43.2,0,0,0,4.487.889c.586,1.686,1.11,2.791,1.11,2.791s-.248-1.107-.511-2.7a59.541,59.541,0,0,0,9.227.5A50.235,50.235,0,0,0,98.1,351.156a91.986,91.986,0,0,1-12.641,1.085,86.761,86.761,0,0,1-10.364-.4c-.216-1.338-.43-2.888-.561-4.38,1.083.139,2.222.248,3.424.345q.73.055,1.443.084c.248,1.738.511,3.044.511,3.044s-.047-1.328-.072-3.029A50.008,50.008,0,0,0,91.712,346.9a91.053,91.053,0,0,1-11.881-.06c0-1.391,0-2.885.082-4.06.012-.2.027-.395.04-.593,1.507.129,3.2.216,5.058.228.127,1.723.209,2.88.209,2.88s.074-1.157.191-2.878c1.986,0,4.181-.087,6.543-.305a42.362,42.362,0,0,0,4.261-.606q.156.67.283,1.271c0-.439-.015-.879-.037-1.318a39.749,39.749,0,0,0,4.3-1.09,31.069,31.069,0,0,1,1.783,6.438,25.709,25.709,0,0,0-.914-6.731,22.567,22.567,0,0,0,2.53-1.021s-.993.219-2.672.516a24.8,24.8,0,0,0-4.966-9.259l.236-.045c8.268,4.613,11.248,14.31,10.083,23.122C109.4,343.459,105.786,334.823,99.414,329.67ZM73.194,341.162c-.074,1.1-.117,2.25-.117,3.476,0,.5.025,1.013.07,1.52-1.229-.174-2.389-.365-3.476-.566v-.035a23.092,23.092,0,0,1,2.168-9.746c.606.119,1.274.248,2.016.348a36,36,0,0,0-.651,4.752c-1.214-.134-1.865-.248-1.865-.248S71.982,340.879,73.194,341.162Zm7.119-12.231q-.2.581-.372,1.259l-1.13-.03a9.074,9.074,0,0,1,1.5-1.232Zm3.588-.559c.05.5.107,1.135.171,1.877l-1.621-.015a5.378,5.378,0,0,1,1.45-1.862Zm2.61-.022a5.668,5.668,0,0,1,1.716,1.872c-.628.012-1.266.022-1.907.025C86.391,329.462,86.455,328.809,86.51,328.35ZM75.3,330.805l.345.037a20.608,20.608,0,0,0-1.6,4.469q-1.025-.072-1.885-.149a17.649,17.649,0,0,1,3.141-4.358Zm.159,5.564c1.07.129,2.257.248,3.566.333-.087,1.376-.139,2.9-.151,4.589-1.691-.057-3.129-.151-4.278-.248a27.065,27.065,0,0,1,.867-4.673Zm.293-.953a14.582,14.582,0,0,1,2.265-4.358q.812.062,1.7.112a37,37,0,0,0-.6,4.392q-1.827-.057-3.355-.146Zm6.208-4.144q1.05.035,2.19.052c.107,1.3.226,2.8.345,4.33-1.328,0-2.58-.02-3.742-.045a23.743,23.743,0,0,1,1.219-4.338Zm4.253.062c.876,0,1.738-.035,2.565-.079a20.229,20.229,0,0,1,1.433,4.293c-1.373.055-2.836.094-4.335.107.127-1.534.243-3.037.35-4.32Zm3.725-.156c.6-.045,1.184-.1,1.738-.161a19.12,19.12,0,0,1,2.515,4.313c-1.075.072-2.289.142-3.593.2a31.692,31.692,0,0,0-.636-4.35Zm-.248-.993c-.146-.516-.3-.993-.474-1.45a9.6,9.6,0,0,1,1.706,1.41Zm2.51-1.393a15.68,15.68,0,0,1,1.649,1.222l-.792.04a13.629,13.629,0,0,0-.839-1.259ZM71.009,332.7a19.6,19.6,0,0,0-1.12,2.235l-.852-.107A19.366,19.366,0,0,1,71.009,332.7Zm-2.175,2.379c.261.079.559.164.894.248a27.129,27.129,0,0,0-1.793,9.917c-1.184-.248-2.257-.5-3.228-.745A21.287,21.287,0,0,1,68.834,335.076Zm5.5,16.691c-1.621-.179-3.052-.387-4.266-.593a35.521,35.521,0,0,1-.375-4.531c1.107.248,2.3.459,3.593.653a28.952,28.952,0,0,0,1.048,4.474ZM79.25,346.8l-.221-.015q-2.413-.182-4.574-.462c-.027-.5-.045-.968-.045-1.42q0-1.806.151-3.454c1.15.223,2.595.457,4.313.638h0a38.291,38.291,0,0,0,.375,4.718Zm.772-5.482c.137-1.688.318-3.2.534-4.529q1.872.094,4.047.109c.119,1.552.231,3.079.328,4.395-1.793.065-3.434.065-4.911.03Zm11.6-.425c-2.188.2-4.221.323-6.121.387.089-1.316.2-2.838.308-4.378,1.636-.02,3.2-.129,4.641-.286a24.994,24.994,0,0,1,.365,3.079q0-1.624-.1-3.109c1.4-.161,2.684-.367,3.8-.579a36.593,36.593,0,0,1,1.438,4.4C94.6,340.586,93.155,340.752,91.618,340.894Zm4.762-.529a26.45,26.45,0,0,0-.847-4.554c1.155-.248,2.066-.477,2.657-.638a31.471,31.471,0,0,1,2.322,4.574C99.352,339.933,97.954,340.149,96.38,340.365Zm1.721-5.333c-.626.06-1.564.142-2.731.228a22.844,22.844,0,0,0-1.862-4.452q.549-.074,1.058-.154a22.4,22.4,0,0,1,3.536,4.37Z" transform="translate(-58.127 -319.969)" fill="#003871"/>
    <path id="Path_2" data-name="Path 2" d="M122,448.857s5.753,2.927,16.636,1.336a35.9,35.9,0,0,0,11.174-3.643,64.8,64.8,0,0,1-10.506,2.4C128.89,450.471,122,448.857,122,448.857Z" transform="translate(-105.394 -411.617)" fill="#003871"/>
    <path id="Path_3" data-name="Path 3" d="M154.974,308.77a22.264,22.264,0,0,0-3.1.194l3.1-3.1,3.1,3.1A22.264,22.264,0,0,0,154.974,308.77Z" transform="translate(-128.641 -305.86)" fill="#003871"/>
    <path id="Path_4" data-name="Path 4" d="M154.964,512.614a22.269,22.269,0,0,0,3.1-.194l-3.1,3.1-3.1-3.1a22.26,22.26,0,0,0,3.1.194Z" transform="translate(-128.633 -461.131)" fill="#003871"/>
    <path id="Path_5" data-name="Path 5" d="M89.108,339.938a22.214,22.214,0,0,0-2.058,2.332v-4.39h4.39a22.2,22.2,0,0,0-2.332,2.058Z" transform="translate(-79.122 -329.929)" fill="#003871"/>
    <path id="Path_6" data-name="Path 6" d="M57.918,405.8a22.268,22.268,0,0,0,.194,3.1L55,405.8l3.1-3.1A22.269,22.269,0,0,0,57.918,405.8Z" transform="translate(-55.03 -378.655)" fill="#003871"/>
    <path id="Path_7" data-name="Path 7" d="M89.108,477.169a22.24,22.24,0,0,0,2.332,2.058H87.05V474.84A22.183,22.183,0,0,0,89.108,477.169Z" transform="translate(-79.122 -432.882)" fill="#003871"/>
    <path id="Path_8" data-name="Path 8" d="M226.332,339.938A22.159,22.159,0,0,0,224,337.88h4.39v4.39A22.246,22.246,0,0,0,226.332,339.938Z" transform="translate(-183.431 -329.929)" fill="#eb690b"/>
    <path id="Path_9" data-name="Path 9" d="M275.13,447.124V441.55h.593v5.574Z" transform="translate(-222.224 -407.858)" fill="#003871"/>
    <path id="Path_10" data-name="Path 10" d="M286.063,452.2v-2.369a.953.953,0,1,0-1.9,0V452.2H283.6v-3.849h.564v.422a1.386,1.386,0,0,1,1.08-.469,1.348,1.348,0,0,1,.993.36,1.423,1.423,0,0,1,.4,1.07V452.2Z" transform="translate(-228.693 -412.933)" fill="#003871"/>
    <path id="Path_11" data-name="Path 11" d="M301.14,448.756a.951.951,0,0,1-.993-1.033v-2.369h-.5v-.43h.5v-1.2h.564v1.2h.822v.43h-.822V447.7c0,.353.164.564.524.564h.3v.5Z" transform="translate(-240.867 -409.489)" fill="#003871"/>
    <path id="Path_12" data-name="Path 12" d="M311.214,450.393c0,.844.4,1.328,1.132,1.328a1.264,1.264,0,0,0,1.008-.437l.382.335a1.763,1.763,0,0,1-1.408.593c-1.016,0-1.679-.611-1.679-1.972,0-1.242.6-1.972,1.577-1.972s1.579.72,1.579,1.862v.248Zm1.914-1.063a.993.993,0,0,0-1.8,0,1.628,1.628,0,0,0-.117.641h2.031A1.628,1.628,0,0,0,313.128,449.33Z" transform="translate(-249.244 -412.91)" fill="#003871"/>
    <path id="Path_13" data-name="Path 13" d="M330.34,449.081a.8.8,0,0,0-.665-.281.939.939,0,0,0-.921,1.033V452.2h-.564v-3.849h.564v.469a1.291,1.291,0,0,1,1.08-.516,1.184,1.184,0,0,1,.924.36Z" transform="translate(-262.558 -412.933)" fill="#003871"/>
    <path id="Path_14" data-name="Path 14" d="M343.913,452.2v-2.369a.953.953,0,1,0-1.9,0V452.2h-.564v-3.849h.564v.422a1.386,1.386,0,0,1,1.08-.469,1.348,1.348,0,0,1,.993.36,1.423,1.423,0,0,1,.4,1.07V452.2Z" transform="translate(-272.64 -412.933)" fill="#003871"/>
    <path id="Path_15" data-name="Path 15" d="M360.406,452.206v-.367a1.351,1.351,0,0,1-1.11.415,1.372,1.372,0,0,1-1.088-.353,1.108,1.108,0,0,1-.291-.782c0-.673.469-1.11,1.328-1.11H360.4v-.367c0-.564-.281-.844-.993-.844a1,1,0,0,0-.968.437l-.382-.353a1.5,1.5,0,0,1,1.361-.571c1.033,0,1.542.447,1.542,1.284v2.612Zm0-1.775h-1.078c-.579,0-.859.236-.859.68s.273.658.884.658a1.125,1.125,0,0,0,.859-.248.889.889,0,0,0,.2-.665Z" transform="translate(-285.15 -412.94)" fill="#003871"/>
    <path id="Path_16" data-name="Path 16" d="M375.56,448.756a.951.951,0,0,1-.993-1.033v-2.369h-.5v-.43h.5v-1.2h.564v1.2h.822v.43h-.822V447.7c0,.353.164.564.524.564h.3v.5Z" transform="translate(-297.397 -409.489)" fill="#003871"/>
    <path id="Path_17" data-name="Path 17" d="M386.05,442.153v-.633h.633v.633Zm.032,4.941v-3.849h.564V447.1Z" transform="translate(-306.47 -407.836)" fill="#003871"/>
    <path id="Path_18" data-name="Path 18" d="M396,451.8a1.606,1.606,0,0,1-2.2,0,2.735,2.735,0,0,1,0-3.064,1.606,1.606,0,0,1,2.2,0,2.735,2.735,0,0,1,0,3.064Zm-.4-2.731a.993.993,0,0,0-.705-.281.968.968,0,0,0-.7.281,2.417,2.417,0,0,0,0,2.379.968.968,0,0,0,.7.281.993.993,0,0,0,.708-.276,2.459,2.459,0,0,0,0-2.374Z" transform="translate(-312.054 -412.929)" fill="#003871"/>
    <path id="Path_19" data-name="Path 19" d="M413.313,452.2v-2.369a.953.953,0,1,0-1.9,0V452.2h-.564v-3.849h.564v.422a1.386,1.386,0,0,1,1.08-.469,1.348,1.348,0,0,1,.993.36,1.423,1.423,0,0,1,.38,1.053V452.2Z" transform="translate(-325.361 -412.933)" fill="#003871"/>
    <path id="Path_20" data-name="Path 20" d="M429.8,452.206v-.367a1.351,1.351,0,0,1-1.11.415,1.372,1.372,0,0,1-1.088-.353,1.108,1.108,0,0,1-.288-.782c0-.673.469-1.11,1.328-1.11H429.8v-.367c0-.564-.281-.844-.993-.844a1.008,1.008,0,0,0-.971.437l-.382-.353a1.5,1.5,0,0,1,1.361-.571c1.033,0,1.539.447,1.539,1.284v2.612Zm0-1.775h-1.075c-.579,0-.859.236-.859.68s.273.658.884.658a1.125,1.125,0,0,0,.859-.248.889.889,0,0,0,.2-.665Z" transform="translate(-337.872 -412.94)" fill="#003871"/>
    <path id="Path_21" data-name="Path 21" d="M446.038,447.139a.917.917,0,0,1-.978-1.026V441.57h.564v4.519c0,.375.124.564.516.564h.305v.5Z" transform="translate(-351.309 -407.873)" fill="#003871"/>
    <path id="Path_22" data-name="Path 22" d="M275.117,482.081a2.426,2.426,0,0,1-1.907-.745l.407-.407a1.912,1.912,0,0,0,1.517.611c.814,0,1.314-.382,1.314-1.033a.9.9,0,0,0-.266-.7,1.2,1.2,0,0,0-.728-.266l-.648-.1a2.024,2.024,0,0,1-1.025-.422,1.316,1.316,0,0,1-.422-1.04,1.575,1.575,0,0,1,1.783-1.572,2.235,2.235,0,0,1,1.659.611l-.382.382a1.753,1.753,0,0,0-1.3-.477,1.027,1.027,0,0,0-1.172,1.033.8.8,0,0,0,.248.641,1.6,1.6,0,0,0,.745.305l.611.094a1.793,1.793,0,0,1,1.016.392,1.393,1.393,0,0,1,.469,1.1C277.041,481.478,276.274,482.081,275.117,482.081Z" transform="translate(-220.811 -434.06)" fill="#003871"/>
    <path id="Path_23" data-name="Path 23" d="M295.094,486.9a1.606,1.606,0,0,1-2.2,0,2.735,2.735,0,0,1,0-3.064,1.606,1.606,0,0,1,2.2,0,2.735,2.735,0,0,1,0,3.064Zm-.4-2.731a.994.994,0,0,0-.7-.281.969.969,0,0,0-.7.281,2.417,2.417,0,0,0,0,2.379.968.968,0,0,0,.7.281.993.993,0,0,0,.7-.281,1.682,1.682,0,0,0,.305-1.189,1.644,1.644,0,0,0-.305-1.179Z" transform="translate(-235.395 -439.314)" fill="#003871"/>
    <path id="Path_24" data-name="Path 24" d="M310.846,482.209a.916.916,0,0,1-.976-1.025V476.64h.561v4.519c0,.375.124.564.516.564h.3v.5Z" transform="translate(-248.622 -434.235)" fill="#003871"/>
    <path id="Path_25" data-name="Path 25" d="M320.526,487.276v-.367a1.351,1.351,0,0,1-1.11.415,1.372,1.372,0,0,1-1.088-.353,1.108,1.108,0,0,1-.291-.782c0-.673.469-1.11,1.328-1.11h1.157v-.367c0-.564-.281-.844-.993-.844a1,1,0,0,0-.968.437l-.382-.353a1.5,1.5,0,0,1,1.361-.571c1.033,0,1.539.447,1.539,1.284v2.612Zm0-1.775h-1.08c-.579,0-.859.236-.859.68s.273.658.884.658a1.125,1.125,0,0,0,.859-.248.889.889,0,0,0,.2-.665Z" transform="translate(-254.854 -439.302)" fill="#003871"/>
    <path id="Path_26" data-name="Path 26" d="M337.993,484.166a.8.8,0,0,0-.665-.281.941.941,0,0,0-.924,1.033v2.361h-.564v-3.849h.564v.469a1.291,1.291,0,0,1,1.08-.516,1.184,1.184,0,0,1,.924.36Z" transform="translate(-268.37 -439.303)" fill="#003871"/>
    <path id="Path_27" data-name="Path 27" d="M357.36,482.217V476.65h3.456v.531h-2.863v1.964h2.441v.531h-2.441v2.009h2.863v.531Z" transform="translate(-284.735 -434.243)" fill="#003871"/>
    <path id="Path_28" data-name="Path 28" d="M378.313,487.27V484.9a.953.953,0,1,0-1.9,0v2.369h-.564v-3.849h.564v.422a1.385,1.385,0,0,1,1.08-.469,1.348,1.348,0,0,1,.993.36,1.423,1.423,0,0,1,.4,1.07v2.463Z" transform="translate(-298.773 -439.296)" fill="#003871"/>
    <path id="Path_29" data-name="Path 29" d="M393.294,485.493c0,.844.4,1.328,1.135,1.328a1.264,1.264,0,0,0,1.008-.437l.382.335a1.763,1.763,0,0,1-1.408.593c-1.018,0-1.681-.611-1.681-1.971,0-1.242.6-1.972,1.579-1.972s1.579.72,1.579,1.862v.248Zm1.914-1.063a.993.993,0,0,0-1.8,0,1.612,1.612,0,0,0-.117.641h2.034a1.611,1.611,0,0,0-.124-.641Z" transform="translate(-311.599 -439.294)" fill="#003871"/>
    <path id="Path_30" data-name="Path 30" d="M412.393,484.166a.8.8,0,0,0-.665-.281.941.941,0,0,0-.924,1.033v2.361h-.564v-3.849h.564v.469a1.291,1.291,0,0,1,1.08-.516,1.184,1.184,0,0,1,.924.36Z" transform="translate(-324.887 -439.303)" fill="#003871"/>
    <path id="Path_31" data-name="Path 31" d="M423.06,489a1.7,1.7,0,0,1-1.306-.516l.367-.36a1.184,1.184,0,0,0,.924.382c.745,0,1.055-.524,1.055-1.182v-.606a1.242,1.242,0,0,1-1.08.5,1.323,1.323,0,0,1-.931-.345,2.976,2.976,0,0,1,0-3.208,1.341,1.341,0,0,1,.939-.335,1.214,1.214,0,0,1,1.08.5v-.454h.554v3.973A1.534,1.534,0,0,1,423.06,489Zm.087-5.162c-.837,0-.961.72-.961,1.438s.124,1.438.961,1.438.953-.72.953-1.438-.119-1.438-.956-1.438Z" transform="translate(-333.543 -439.26)" fill="#003871"/>
    <path id="Path_32" data-name="Path 32" d="M438.647,488.357a1.119,1.119,0,0,1-.273.454,1.055,1.055,0,0,1-.745.266h-.248v-.5h.176c.392,0,.5-.124.633-.477l.273-.745-1.383-3.769h.611l1.048,3.074,1.053-3.084h.611Z" transform="translate(-345.295 -439.452)" fill="#003871"/>
    <path id="Path_33" data-name="Path 33" d="M461.867,482.081a2.426,2.426,0,0,1-1.907-.745l.407-.407a1.912,1.912,0,0,0,1.517.611c.814,0,1.314-.382,1.314-1.033a.9.9,0,0,0-.266-.7,1.2,1.2,0,0,0-.728-.266l-.648-.1a2.024,2.024,0,0,1-1.023-.422,1.316,1.316,0,0,1-.422-1.04,1.575,1.575,0,0,1,1.783-1.572,2.235,2.235,0,0,1,1.659.611l-.382.382a1.755,1.755,0,0,0-1.3-.477,1.027,1.027,0,0,0-1.172,1.033.8.8,0,0,0,.248.641,1.6,1.6,0,0,0,.745.305l.611.094a1.793,1.793,0,0,1,1.016.392,1.393,1.393,0,0,1,.469,1.1C463.791,481.478,463.024,482.081,461.867,482.081Z" transform="translate(-363.355 -434.06)" fill="#003871"/>
    <path id="Path_34" data-name="Path 34" d="M481.844,486.9a1.607,1.607,0,0,1-2.2,0,2.735,2.735,0,0,1,0-3.064,1.606,1.606,0,0,1,2.2,0,2.735,2.735,0,0,1,0,3.064Zm-.4-2.731a.993.993,0,0,0-.705-.281.969.969,0,0,0-.7.281,2.417,2.417,0,0,0,0,2.379.969.969,0,0,0,.7.281.993.993,0,0,0,.705-.281,1.682,1.682,0,0,0,.305-1.189,1.655,1.655,0,0,0-.3-1.179Z" transform="translate(-377.795 -439.314)" fill="#003871"/>
    <path id="Path_35" data-name="Path 35" d="M497.536,487.317c-.968,0-1.706-.656-1.706-1.971s.745-1.972,1.706-1.972a1.525,1.525,0,0,1,1.266.571l-.382.36a1.058,1.058,0,0,0-.884-.43,1.043,1.043,0,0,0-.891.437,2.255,2.255,0,0,0,0,2.063,1.043,1.043,0,0,0,.891.437,1.065,1.065,0,0,0,.884-.437l.382.38A1.525,1.525,0,0,1,497.536,487.317Z" transform="translate(-390.319 -439.296)" fill="#003871"/>
    <path id="Path_36" data-name="Path 36" d="M512,477.253v-.633h.633v.633Zm.032,4.941v-3.849h.564v3.849Z" transform="translate(-402.474 -434.22)" fill="#003871"/>
    <path id="Path_37" data-name="Path 37" d="M519.8,485.493c0,.844.4,1.328,1.135,1.328a1.264,1.264,0,0,0,1.008-.437l.382.335a1.763,1.763,0,0,1-1.408.593c-1.018,0-1.681-.611-1.681-1.971,0-1.242.6-1.972,1.579-1.972s1.579.72,1.579,1.862v.248Zm1.914-1.063a.993.993,0,0,0-1.8,0,1.611,1.611,0,0,0-.117.641h2.034A1.61,1.61,0,0,0,521.718,484.43Z" transform="translate(-407.916 -439.294)" fill="#003871"/>
    <path id="Path_38" data-name="Path 38" d="M536.62,483.848a.951.951,0,0,1-.993-1.033v-2.361h-.5v-.43h.5v-1.2h.564v1.2h.822v.43h-.822V482.8c0,.353.164.564.524.564h.3v.5Z" transform="translate(-419.86 -435.874)" fill="#003871"/>
    <path id="Path_39" data-name="Path 39" d="M546.322,488.342a1.12,1.12,0,0,1-.273.454,1.055,1.055,0,0,1-.745.266h-.248v-.5h.171c.392,0,.5-.124.633-.477l.273-.745-1.383-3.769h.611l1.055,3.074,1.048-3.089h.611Z" transform="translate(-427.092 -439.437)" fill="#003871"/>
    <path id="Path_40" data-name="Path 40" d="M280.114,358.423H275.88V337h4.234Z" transform="translate(-222.845 -329.268)" fill="#003871"/>
    <path id="Path_41" data-name="Path 41" d="M319.244,35.4V31.97H308.81V53.187h10.434V49.756h-6.2V44.095h4.931V40.661h-4.931V35.4Z" transform="translate(-234.778 -24.032)" fill="#003871"/>
    <path id="Path_42" data-name="Path 42" d="M310.6,345.91l-1.381-.444c-1.738-.623-2.274-1.2-2.274-2.5a2.123,2.123,0,0,1,2.14-2.185,2.037,2.037,0,0,1,2.1,2.1l3.9-.335a6.089,6.089,0,0,0-6.044-5.766,6.184,6.184,0,0,0-6.106,6.285,5.959,5.959,0,0,0,1.241,3.789c.8,1.115,1.6,1.6,3.921,2.409l.847.313c1.872.668,2.451,1.241,2.451,2.54a2.363,2.363,0,1,1-4.725.045l-3.955.345a5.959,5.959,0,0,0,.847,2.952,6.723,6.723,0,0,0,5.614,3.121,6.451,6.451,0,0,0,6.284-6.419,6.57,6.57,0,0,0-1.47-4.055A6.463,6.463,0,0,0,310.6,345.91Z" transform="translate(-243.381 -329.103)" fill="#eb690b"/>
    <path id="Path_43" data-name="Path 43" d="M420.546,345.91l-1.381-.444c-1.738-.623-2.272-1.2-2.272-2.5a2.123,2.123,0,0,1,2.14-2.185,2.037,2.037,0,0,1,2.1,2.1l3.9-.335a6.089,6.089,0,0,0-6.046-5.766,6.182,6.182,0,0,0-6.1,6.285,5.959,5.959,0,0,0,1.242,3.789c.8,1.115,1.6,1.6,3.921,2.409l.847.313c1.872.668,2.451,1.241,2.451,2.54a2.363,2.363,0,1,1-4.725.045l-3.955.345a5.944,5.944,0,0,0,.844,2.952,6.722,6.722,0,0,0,5.614,3.121,6.451,6.451,0,0,0,6.285-6.419,6.57,6.57,0,0,0-1.47-4.055A6.445,6.445,0,0,0,420.546,345.91Z" transform="translate(-326.984 -329.103)" fill="#003871"/>
  </g>
</svg>
